<svg version="1.2" xmlns="http://www.w3.org/2000/svg" viewBox="0 0 500 500" width="500" height="500">
	<defs>
		<clipPath clipPathUnits="userSpaceOnUse" id="cp1">
			<path d="m0 0h500v500h-500z"/>
		</clipPath>
		<clipPath clipPathUnits="userSpaceOnUse" id="cp2">
			<path d="m0 0h500v500h-500z"/>
		</clipPath>
		<clipPath clipPathUnits="userSpaceOnUse" id="cp3">
			<path d="m0 0h500v500h-500z"/>
		</clipPath>
		<clipPath clipPathUnits="userSpaceOnUse" id="cp4">
			<path d="m0 0h500v500h-500z"/>
		</clipPath>
		<clipPath clipPathUnits="userSpaceOnUse" id="cp5">
			<path d="m0 0h500v500h-500z"/>
		</clipPath>
		<clipPath clipPathUnits="userSpaceOnUse" id="cp6">
			<path d="m0 0h500v500h-500z"/>
		</clipPath>
		<clipPath clipPathUnits="userSpaceOnUse" id="cp7">
			<path d="m32.18 719.85h-500v-500h500z"/>
		</clipPath>
		<clipPath clipPathUnits="userSpaceOnUse" id="cp8">
			<path d="m906.18 683.85h-500v-500h500z"/>
		</clipPath>
		<clipPath clipPathUnits="userSpaceOnUse" id="cp9">
			<path d="m168.18 583.85h-500v-500h500z"/>
		</clipPath>
		<clipPath clipPathUnits="userSpaceOnUse" id="cp10">
			<path d="m7.82 694.15h-500v-500h500z"/>
		</clipPath>
		<clipPath clipPathUnits="userSpaceOnUse" id="cp11">
			<path d="m998.18 265.85h-500v-500h500z"/>
		</clipPath>
		<clipPath clipPathUnits="userSpaceOnUse" id="cp12">
			<path d="m973.82 240.15h-500v-500h500z"/>
		</clipPath>
		<clipPath clipPathUnits="userSpaceOnUse" id="cp13">
			<path d="m0 0h500v500h-500z"/>
		</clipPath>
		<clipPath clipPathUnits="userSpaceOnUse" id="cp14">
			<path d="m0 0h500v500h-500z"/>
		</clipPath>
		<clipPath clipPathUnits="userSpaceOnUse" id="cp15">
			<path d="m0 0h500v500h-500z"/>
		</clipPath>
		<clipPath clipPathUnits="userSpaceOnUse" id="cp16">
			<path d="m0 0h500v500h-500z"/>
		</clipPath>
		<clipPath clipPathUnits="userSpaceOnUse" id="cp17">
			<path d="m0 0h500v500h-500z"/>
		</clipPath>
		<clipPath clipPathUnits="userSpaceOnUse" id="cp18">
			<path d="m0 0h500v500h-500z"/>
		</clipPath>
		<clipPath clipPathUnits="userSpaceOnUse" id="cp19">
			<path d="m838.18 877.85h-500v-500h500z"/>
		</clipPath>
		<clipPath clipPathUnits="userSpaceOnUse" id="cp20">
			<path d="m0 0h500v500h-500z"/>
		</clipPath>
		<clipPath clipPathUnits="userSpaceOnUse" id="cp21">
			<path d="m0 0h500v500h-500z"/>
		</clipPath>
		<clipPath clipPathUnits="userSpaceOnUse" id="cp22">
			<path d="m0 0h500v500h-500z"/>
		</clipPath>
		<clipPath clipPathUnits="userSpaceOnUse" id="cp23">
			<path d="m0 0h500v500h-500z"/>
		</clipPath>
		<clipPath clipPathUnits="userSpaceOnUse" id="cp24">
			<path d="m0 0h500v500h-500z"/>
		</clipPath>
		<clipPath clipPathUnits="userSpaceOnUse" id="cp25">
			<path d="m0 0h500v500h-500z"/>
		</clipPath>
		<clipPath clipPathUnits="userSpaceOnUse" id="cp26">
			<path d="m300.04 75.33h50.04v24.37h-50.04z"/>
		</clipPath>
		<clipPath clipPathUnits="userSpaceOnUse" id="cp27">
			<path d="m300.04 75.33h50.04v24.37h-50.04z"/>
		</clipPath>
		<clipPath clipPathUnits="userSpaceOnUse" id="cp28">
			<path d="m246.81 75.33h50.04v24.37h-50.04z"/>
		</clipPath>
		<clipPath clipPathUnits="userSpaceOnUse" id="cp29">
			<path d="m246.81 75.33h50.04v24.37h-50.04z"/>
		</clipPath>
		<clipPath clipPathUnits="userSpaceOnUse" id="cp30">
			<path d="m164.52 99.7h-11.46c-1.48 0-2.69-1.2-2.69-2.68v-12.21c0-4.18 3.4-7.58 7.58-7.58h1.68c4.18 0 7.58 3.4 7.58 7.58v12.21c0 1.48-1.21 2.68-2.69 2.68z"/>
		</clipPath>
		<clipPath clipPathUnits="userSpaceOnUse" id="cp31">
			<path d="m164.52 99.7h-11.46c-1.48 0-2.69-1.2-2.69-2.68v-12.21c0-4.18 3.4-7.58 7.58-7.58h1.68c4.18 0 7.58 3.4 7.58 7.58v12.21c0 1.48-1.21 2.68-2.69 2.68z"/>
		</clipPath>
		<clipPath clipPathUnits="userSpaceOnUse" id="cp32">
			<path d="m184.99 99.7h-11.46c-1.48 0-2.69-1.2-2.69-2.68v-12.21c0-4.18 3.4-7.58 7.58-7.58h1.68c4.18 0 7.58 3.4 7.58 7.58v12.21c0 1.48-1.21 2.68-2.69 2.68z"/>
		</clipPath>
		<clipPath clipPathUnits="userSpaceOnUse" id="cp33">
			<path d="m184.99 99.7h-11.46c-1.48 0-2.69-1.2-2.69-2.68v-12.21c0-4.18 3.4-7.58 7.58-7.58h1.68c4.18 0 7.58 3.4 7.58 7.58v12.21c0 1.48-1.21 2.68-2.69 2.68z"/>
		</clipPath>
		<clipPath clipPathUnits="userSpaceOnUse" id="cp34">
			<path d="m206.37 99.7h-11.46c-1.48 0-2.69-1.2-2.69-2.68v-12.21c0-4.18 3.4-7.58 7.58-7.58h1.68c4.18 0 7.58 3.4 7.58 7.58v12.21c0 1.48-1.21 2.68-2.69 2.68z"/>
		</clipPath>
		<clipPath clipPathUnits="userSpaceOnUse" id="cp35">
			<path d="m206.37 99.7h-11.46c-1.48 0-2.69-1.2-2.69-2.68v-12.21c0-4.18 3.4-7.58 7.58-7.58h1.68c4.18 0 7.58 3.4 7.58 7.58v12.21c0 1.48-1.21 2.68-2.69 2.68z"/>
		</clipPath>
		<clipPath clipPathUnits="userSpaceOnUse" id="cp36">
			<path d="m370.04 100.16h-8.08c-1.54 0-2.79-1.25-2.79-2.79v-14.89c0-3.77 3.06-6.82 6.83-6.82 3.77 0 6.82 3.06 6.82 6.82v14.89c0 1.54-1.24 2.79-2.78 2.79z"/>
		</clipPath>
		<clipPath clipPathUnits="userSpaceOnUse" id="cp37">
			<path d="m370.04 100.16h-8.08c-1.54 0-2.79-1.25-2.79-2.79v-14.89c0-3.77 3.06-6.82 6.83-6.82 3.77 0 6.82 3.06 6.82 6.82v14.89c0 1.54-1.24 2.79-2.78 2.79z"/>
		</clipPath>
		<clipPath clipPathUnits="userSpaceOnUse" id="cp38">
			<path d="m370.04 100.16h-8.08c-1.54 0-2.79-1.25-2.79-2.79v-14.89c0-3.77 3.06-6.82 6.83-6.82 3.77 0 6.82 3.06 6.82 6.82v14.89c0 1.54-1.24 2.79-2.78 2.79z"/>
		</clipPath>
		<clipPath clipPathUnits="userSpaceOnUse" id="cp39">
			<path d="m386.87 100.16h-8.08c-1.54 0-2.78-1.25-2.78-2.79v-14.89c0-3.77 3.05-6.82 6.82-6.82 3.77 0 6.82 3.06 6.82 6.82v14.89c0 1.54-1.24 2.79-2.78 2.79z"/>
		</clipPath>
		<clipPath clipPathUnits="userSpaceOnUse" id="cp40">
			<path d="m386.87 100.16h-8.08c-1.54 0-2.78-1.25-2.78-2.79v-14.89c0-3.77 3.05-6.82 6.82-6.82 3.77 0 6.82 3.06 6.82 6.82v14.89c0 1.54-1.24 2.79-2.78 2.79z"/>
		</clipPath>
		<clipPath clipPathUnits="userSpaceOnUse" id="cp41">
			<path d="m386.87 100.16h-8.08c-1.54 0-2.78-1.25-2.78-2.79v-14.89c0-3.77 3.05-6.82 6.82-6.82 3.77 0 6.82 3.06 6.82 6.82v14.89c0 1.54-1.24 2.79-2.78 2.79z"/>
		</clipPath>
		<clipPath clipPathUnits="userSpaceOnUse" id="cp42">
			<path d="m402.79 100.16h-8.08c-1.53 0-2.78-1.25-2.78-2.79v-14.89c0-3.77 3.05-6.82 6.82-6.82 3.77 0 6.83 3.06 6.83 6.82v14.89c0 1.54-1.25 2.79-2.79 2.79z"/>
		</clipPath>
		<clipPath clipPathUnits="userSpaceOnUse" id="cp43">
			<path d="m402.79 100.16h-8.08c-1.53 0-2.78-1.25-2.78-2.79v-14.89c0-3.77 3.05-6.82 6.82-6.82 3.77 0 6.83 3.06 6.83 6.82v14.89c0 1.54-1.25 2.79-2.79 2.79z"/>
		</clipPath>
		<clipPath clipPathUnits="userSpaceOnUse" id="cp44">
			<path d="m402.79 100.16h-8.08c-1.53 0-2.78-1.25-2.78-2.79v-14.89c0-3.77 3.05-6.82 6.82-6.82 3.77 0 6.83 3.06 6.83 6.82v14.89c0 1.54-1.25 2.79-2.79 2.79z"/>
		</clipPath>
		<clipPath clipPathUnits="userSpaceOnUse" id="cp45">
			<path d="m292.3 56.11h31.85v18.5h-31.85z"/>
		</clipPath>
		<clipPath clipPathUnits="userSpaceOnUse" id="cp46">
			<path d="m92.15 178.41h38.66v4.88h-38.66z"/>
		</clipPath>
		<clipPath clipPathUnits="userSpaceOnUse" id="cp47">
			<path d="m92.15 178.41h38.66v4.88h-38.66z"/>
		</clipPath>
		<clipPath clipPathUnits="userSpaceOnUse" id="cp48">
			<path d="m92.15 178.41h38.66v4.88h-38.66z"/>
		</clipPath>
		<clipPath clipPathUnits="userSpaceOnUse" id="cp49">
			<path d="m121.39 172.33h38.67v4.87h-38.67z"/>
		</clipPath>
		<clipPath clipPathUnits="userSpaceOnUse" id="cp50">
			<path d="m109.37 174.17h38.66v4.87h-38.66z"/>
		</clipPath>
		<clipPath clipPathUnits="userSpaceOnUse" id="cp51">
			<path d="m113.48 174.38h38.67v4.88h-38.67z"/>
		</clipPath>
		<clipPath clipPathUnits="userSpaceOnUse" id="cp52">
			<path d="m92.15 168.41h38.66v4.87h-38.66z"/>
		</clipPath>
		<clipPath clipPathUnits="userSpaceOnUse" id="cp53">
			<path d="m92.15 168.41h38.66v4.87h-38.66z"/>
		</clipPath>
		<clipPath clipPathUnits="userSpaceOnUse" id="cp54">
			<path d="m92.15 168.41h38.66v4.87h-38.66z"/>
		</clipPath>
		<clipPath clipPathUnits="userSpaceOnUse" id="cp55">
			<path d="m121.39 162.32h38.67v4.87h-38.67z"/>
		</clipPath>
		<clipPath clipPathUnits="userSpaceOnUse" id="cp56">
			<path d="m109.37 164.16h38.66v4.87h-38.66z"/>
		</clipPath>
		<clipPath clipPathUnits="userSpaceOnUse" id="cp57">
			<path d="m113.48 164.38h38.67v4.87h-38.67z"/>
		</clipPath>
		<clipPath clipPathUnits="userSpaceOnUse" id="cp58">
			<path d="m314.18 167.84h24.11v12.75h-24.11z"/>
		</clipPath>
		<clipPath clipPathUnits="userSpaceOnUse" id="cp59">
			<path d="m306.68 172.65h24.11v12.76h-24.11z"/>
		</clipPath>
		<clipPath clipPathUnits="userSpaceOnUse" id="cp60">
			<path d="m309.25 173.22h24.11v12.76h-24.11z"/>
		</clipPath>
		<clipPath clipPathUnits="userSpaceOnUse" id="cp61">
			<path d="m314.18 154.64h24.11v12.76h-24.11z"/>
		</clipPath>
		<clipPath clipPathUnits="userSpaceOnUse" id="cp62">
			<path d="m306.68 159.46h24.11v12.76h-24.11z"/>
		</clipPath>
		<clipPath clipPathUnits="userSpaceOnUse" id="cp63">
			<path d="m309.25 160.03h24.11v12.75h-24.11z"/>
		</clipPath>
		<clipPath clipPathUnits="userSpaceOnUse" id="cp64">
			<path d="m288.59 169.36h-24.11v-12.76h24.11z"/>
		</clipPath>
		<clipPath clipPathUnits="userSpaceOnUse" id="cp65">
			<path d="m294.75 170.7h-24.11v-12.76h24.11z"/>
		</clipPath>
		<clipPath clipPathUnits="userSpaceOnUse" id="cp66">
			<path d="m293.75 169.13h-24.11v-12.76h24.11z"/>
		</clipPath>
		<clipPath clipPathUnits="userSpaceOnUse" id="cp67">
			<path d="m146.28 161.92h15.47v22.85h-15.47z"/>
		</clipPath>
		<clipPath clipPathUnits="userSpaceOnUse" id="cp68">
			<path d="m146.28 161.92h15.47v22.85h-15.47z"/>
		</clipPath>
		<clipPath clipPathUnits="userSpaceOnUse" id="cp69">
			<path d="m164.02 161.92h15.47v22.85h-15.47z"/>
		</clipPath>
		<clipPath clipPathUnits="userSpaceOnUse" id="cp70">
			<path d="m164.02 161.92h15.47v22.85h-15.47z"/>
		</clipPath>
		<clipPath clipPathUnits="userSpaceOnUse" id="cp71">
			<path d="m219.27 186.38h-15.47v-22.85h15.47z"/>
		</clipPath>
		<clipPath clipPathUnits="userSpaceOnUse" id="cp72">
			<path d="m213.26 182.6h-15.47v-22.85h15.47z"/>
		</clipPath>
		<clipPath clipPathUnits="userSpaceOnUse" id="cp73">
			<path d="m195.45 184.32h-11.46c-1.48 0-2.68-1.21-2.68-2.69v-12.2c0-4.19 3.39-7.58 7.58-7.58h1.67c4.19 0 7.58 3.39 7.58 7.58v12.2c0 1.48-1.2 2.69-2.69 2.69z"/>
		</clipPath>
		<clipPath clipPathUnits="userSpaceOnUse" id="cp74">
			<path d="m195.45 184.32h-11.46c-1.48 0-2.68-1.21-2.68-2.69v-12.2c0-4.19 3.39-7.58 7.58-7.58h1.67c4.19 0 7.58 3.39 7.58 7.58v12.2c0 1.48-1.2 2.69-2.69 2.69z"/>
		</clipPath>
		<clipPath clipPathUnits="userSpaceOnUse" id="cp75">
			<path d="m234.93 184.32h-8.08c-1.53 0-2.78-1.25-2.78-2.79v-14.89c0-3.77 3.05-6.82 6.82-6.82 3.77 0 6.83 3.05 6.83 6.82v14.89c0 1.54-1.25 2.79-2.79 2.79z"/>
		</clipPath>
		<clipPath clipPathUnits="userSpaceOnUse" id="cp76">
			<path d="m234.93 184.32h-8.08c-1.53 0-2.78-1.25-2.78-2.79v-14.89c0-3.77 3.05-6.82 6.82-6.82 3.77 0 6.83 3.05 6.83 6.82v14.89c0 1.54-1.25 2.79-2.79 2.79z"/>
		</clipPath>
		<clipPath clipPathUnits="userSpaceOnUse" id="cp77">
			<path d="m234.93 184.32h-8.08c-1.53 0-2.78-1.25-2.78-2.79v-14.89c0-3.77 3.05-6.82 6.82-6.82 3.77 0 6.83 3.05 6.83 6.82v14.89c0 1.54-1.25 2.79-2.79 2.79z"/>
		</clipPath>
		<clipPath clipPathUnits="userSpaceOnUse" id="cp78">
			<path d="m267.23 184.32h-8.08c-1.54 0-2.78-1.25-2.78-2.79v-14.89c0-3.77 3.05-6.82 6.82-6.82 3.77 0 6.82 3.05 6.82 6.82v14.89c0 1.54-1.24 2.79-2.78 2.79z"/>
		</clipPath>
		<clipPath clipPathUnits="userSpaceOnUse" id="cp79">
			<path d="m267.23 184.32h-8.08c-1.54 0-2.78-1.25-2.78-2.79v-14.89c0-3.77 3.05-6.82 6.82-6.82 3.77 0 6.82 3.05 6.82 6.82v14.89c0 1.54-1.24 2.79-2.78 2.79z"/>
		</clipPath>
		<clipPath clipPathUnits="userSpaceOnUse" id="cp80">
			<path d="m267.23 184.32h-8.08c-1.54 0-2.78-1.25-2.78-2.79v-14.89c0-3.77 3.05-6.82 6.82-6.82 3.77 0 6.82 3.05 6.82 6.82v14.89c0 1.54-1.24 2.79-2.78 2.79z"/>
		</clipPath>
		<clipPath clipPathUnits="userSpaceOnUse" id="cp81">
			<path d="m74.2 183.41h-6.28c-1.19 0-2.16-0.97-2.16-2.17v-11.56c0-2.93 2.37-5.3 5.3-5.3 2.93 0 5.3 2.37 5.3 5.3v11.56c0 1.2-0.97 2.17-2.16 2.17z"/>
		</clipPath>
		<clipPath clipPathUnits="userSpaceOnUse" id="cp82">
			<path d="m74.2 183.41h-6.28c-1.19 0-2.16-0.97-2.16-2.17v-11.56c0-2.93 2.37-5.3 5.3-5.3 2.93 0 5.3 2.37 5.3 5.3v11.56c0 1.2-0.97 2.17-2.16 2.17z"/>
		</clipPath>
		<clipPath clipPathUnits="userSpaceOnUse" id="cp83">
			<path d="m74.2 183.41h-6.28c-1.19 0-2.16-0.97-2.16-2.17v-11.56c0-2.93 2.37-5.3 5.3-5.3 2.93 0 5.3 2.37 5.3 5.3v11.56c0 1.2-0.97 2.17-2.16 2.17z"/>
		</clipPath>
		<clipPath clipPathUnits="userSpaceOnUse" id="cp84">
			<path d="m140.62 183.86h-6.28c-1.19 0-2.16-0.97-2.16-2.16v-11.57c0-2.93 2.37-5.3 5.3-5.3 2.93 0 5.3 2.37 5.3 5.3v11.57c0 1.19-0.97 2.16-2.16 2.16z"/>
		</clipPath>
		<clipPath clipPathUnits="userSpaceOnUse" id="cp85">
			<path d="m140.62 183.86h-6.28c-1.19 0-2.16-0.97-2.16-2.16v-11.57c0-2.93 2.37-5.3 5.3-5.3 2.93 0 5.3 2.37 5.3 5.3v11.57c0 1.19-0.97 2.16-2.16 2.16z"/>
		</clipPath>
		<clipPath clipPathUnits="userSpaceOnUse" id="cp86">
			<path d="m140.62 183.86h-6.28c-1.19 0-2.16-0.97-2.16-2.16v-11.57c0-2.93 2.37-5.3 5.3-5.3 2.93 0 5.3 2.37 5.3 5.3v11.57c0 1.19-0.97 2.16-2.16 2.16z"/>
		</clipPath>
		<clipPath clipPathUnits="userSpaceOnUse" id="cp87">
			<path d="m86.94 183.86h-6.28c-1.19 0-2.16-0.97-2.16-2.16v-11.57c0-2.93 2.37-5.3 5.3-5.3 2.93 0 5.3 2.37 5.3 5.3v11.57c0 1.19-0.97 2.16-2.16 2.16z"/>
		</clipPath>
		<clipPath clipPathUnits="userSpaceOnUse" id="cp88">
			<path d="m86.94 183.86h-6.28c-1.19 0-2.16-0.97-2.16-2.16v-11.57c0-2.93 2.37-5.3 5.3-5.3 2.93 0 5.3 2.37 5.3 5.3v11.57c0 1.19-0.97 2.16-2.16 2.16z"/>
		</clipPath>
		<clipPath clipPathUnits="userSpaceOnUse" id="cp89">
			<path d="m86.94 183.86h-6.28c-1.19 0-2.16-0.97-2.16-2.16v-11.57c0-2.93 2.37-5.3 5.3-5.3 2.93 0 5.3 2.37 5.3 5.3v11.57c0 1.19-0.97 2.16-2.16 2.16z"/>
		</clipPath>
		<clipPath clipPathUnits="userSpaceOnUse" id="cp90">
			<path d="m42.11 167.94h23.65v15.39h-23.65z"/>
		</clipPath>
		<clipPath clipPathUnits="userSpaceOnUse" id="cp91">
			<path d="m266.83 218.62h50.04v24.38h-50.04z"/>
		</clipPath>
		<clipPath clipPathUnits="userSpaceOnUse" id="cp92">
			<path d="m266.83 218.62h50.04v24.38h-50.04z"/>
		</clipPath>
		<clipPath clipPathUnits="userSpaceOnUse" id="cp93">
			<path d="m175.39 217.26h50.04v24.38h-50.04z"/>
		</clipPath>
		<clipPath clipPathUnits="userSpaceOnUse" id="cp94">
			<path d="m175.39 217.26h50.04v24.38h-50.04z"/>
		</clipPath>
		<clipPath clipPathUnits="userSpaceOnUse" id="cp95">
			<path d="m404.67 216.96h15.46v22.86h-15.46z"/>
		</clipPath>
		<clipPath clipPathUnits="userSpaceOnUse" id="cp96">
			<path d="m404.67 216.96h15.46v22.86h-15.46z"/>
		</clipPath>
		<clipPath clipPathUnits="userSpaceOnUse" id="cp97">
			<path d="m397.43 240.72h-11.46c-1.48 0-2.68-1.2-2.68-2.68v-12.21c0-4.18 3.39-7.58 7.58-7.58h1.67c4.18 0 7.58 3.4 7.58 7.58v12.21c0 1.48-1.21 2.68-2.69 2.68z"/>
		</clipPath>
		<clipPath clipPathUnits="userSpaceOnUse" id="cp98">
			<path d="m397.43 240.72h-11.46c-1.48 0-2.68-1.2-2.68-2.68v-12.21c0-4.18 3.39-7.58 7.58-7.58h1.67c4.18 0 7.58 3.4 7.58 7.58v12.21c0 1.48-1.21 2.68-2.69 2.68z"/>
		</clipPath>
		<clipPath clipPathUnits="userSpaceOnUse" id="cp99">
			<path d="m346.44 211.34h33.21v29.39h-33.21z"/>
		</clipPath>
		<clipPath clipPathUnits="userSpaceOnUse" id="cp100">
			<path d="m154.47 228.11h16.83v14.89h-16.83z"/>
		</clipPath>
		<clipPath clipPathUnits="userSpaceOnUse" id="cp101">
			<path d="m321.72 241.86v-31.84h18.5v31.84z"/>
		</clipPath>
		<clipPath clipPathUnits="userSpaceOnUse" id="cp102">
			<path d="m257.1 235.95c-3.42-19.53 0.51-38.56 3.36-48.71-5.09-0.55-9.44-0.81-10.54-0.67-2.6 0.32-8.8 1.95-8.8 1.95 0 0-2.11 0.55-5.25 1.5 3.49 10.91 7.99 29.27 6.48 48.16q0.17 1.03 0.24 2.01c0.84 11.78-2.18 60.22-6.36 83.08l33.08-1.01c-6.02-21.99-11.78-71.95-12.27-83.94q-0.04-1.15 0.06-2.37z"/>
		</clipPath>
		<clipPath clipPathUnits="userSpaceOnUse" id="cp103">
			<path d="m257.1 235.95c-3.42-19.53 0.51-38.56 3.36-48.71-5.09-0.55-9.44-0.81-10.54-0.67-2.6 0.32-8.8 1.95-8.8 1.95 0 0-2.11 0.55-5.25 1.5 3.49 10.91 7.99 29.27 6.48 48.16q0.17 1.03 0.24 2.01c0.84 11.78-2.18 60.22-6.36 83.08l33.08-1.01c-6.02-21.99-11.78-71.95-12.27-83.94q-0.04-1.15 0.06-2.37z"/>
		</clipPath>
		<clipPath clipPathUnits="userSpaceOnUse" id="cp104">
			<path d="m288.13 135.65c0 0-6.36-9.11-2.55-18.22 3.43-8.2-13-7.31-16.36-7.05q1.31-0.8 2.71-1.43c3.71-1.67 7.81-2.34 11.81-1.44 0.2 0.05 0.28-0.26 0.08-0.3-3.82-0.87-7.72-0.34-11.32 1.15q-1.88 0.78-3.62 1.85-0.08 0.05-0.16 0.11 0.25-0.31 0.45-0.6c1.22-0.76 2.26-1.8 2.7-3.1 0.57-1.71-0.07-3.66-1.17-5.01-1.12-1.37-2.75-1.97-4.4-2.44-0.83-0.23-1.78-0.42-2.5-0.94-1-0.72-0.97-1.92-0.74-3.01 0.04-0.2-0.26-0.29-0.31-0.09-0.36 1.76 0.02 3.12 1.76 3.82 2.06 0.83 4.35 0.97 5.89 2.79 1.8 2.13 1.81 5-0.3 6.87q-0.2 0.17-0.41 0.34c4.83-7.89-11.5-5.08-12.5-15.9-1.06-11.44-22.89 4.03-31.58 0.64-8.69-3.39-13.99 9.75-10.81 16.32 3.18 6.57-2.54 9.11-10.17 9.11-7.63 0-3.6 10.38 1.91 15.05 5.51 4.66 2.33 5.08-4.03 11.44-6.36 6.36 11.44 13.56 10.81 17.59-0.64 4.03 10.38 1.91 12.29 8.48 1.91 6.57 14.62 1.27 14.62 1.27 2.12-4.03 17.59-0.85 20.35 5.3 2.75 6.14 8.69-11.87 17.59-11.23 8.9 0.63-0.85-14.63 8.9-12.08 9.74 2.54 1.06-19.29 1.06-19.29z"/>
		</clipPath>
		<clipPath clipPathUnits="userSpaceOnUse" id="cp105">
			<path d="m236.84 161.72c0 0 5.93 22.46 0 29.67l14.83 5.93 6.78-7.2c0 0-5.93-21.19 0-30.94z"/>
		</clipPath>
		<clipPath clipPathUnits="userSpaceOnUse" id="cp106">
			<path d="m241.66 145c-3.93 0-7.12-3.92-7.12-8.76 0-4.85 3.19-8.77 7.12-8.77 3.93 0 7.11 3.92 7.11 8.77 0 4.84-3.18 8.76-7.11 8.76z"/>
		</clipPath>
		<clipPath clipPathUnits="userSpaceOnUse" id="cp107">
			<path d="m241.66 145c-3.93 0-7.12-3.92-7.12-8.76 0-4.85 3.19-8.77 7.12-8.77 3.93 0 7.11 3.92 7.11 8.77 0 4.84-3.18 8.76-7.11 8.76z"/>
		</clipPath>
		<clipPath clipPathUnits="userSpaceOnUse" id="cp108">
			<path d="m241.66 145c-3.93 0-7.12-3.92-7.12-8.76 0-4.85 3.19-8.77 7.12-8.77 3.93 0 7.11 3.92 7.11 8.77 0 4.84-3.18 8.76-7.11 8.76z"/>
		</clipPath>
		<clipPath clipPathUnits="userSpaceOnUse" id="cp109">
			<path d="m259.25 143.94c-3.93 0-7.12-3.92-7.12-8.76 0-4.85 3.19-8.77 7.12-8.77 3.93 0 7.12 3.92 7.12 8.77 0 4.84-3.19 8.76-7.12 8.76z"/>
		</clipPath>
		<clipPath clipPathUnits="userSpaceOnUse" id="cp110">
			<path d="m259.25 143.94c-3.93 0-7.12-3.92-7.12-8.76 0-4.85 3.19-8.77 7.12-8.77 3.93 0 7.12 3.92 7.12 8.77 0 4.84-3.19 8.76-7.12 8.76z"/>
		</clipPath>
		<clipPath clipPathUnits="userSpaceOnUse" id="cp111">
			<path d="m259.25 143.94c-3.93 0-7.12-3.92-7.12-8.76 0-4.85 3.19-8.77 7.12-8.77 3.93 0 7.12 3.92 7.12 8.77 0 4.84-3.19 8.76-7.12 8.76z"/>
		</clipPath>
	</defs>
	<style>
		.s0 { fill: #93ca93 } 
		.s1 { fill: #e1f1ff } 
		.s2 { fill: #8096c3 } 
		.s3 { fill: #ffffff } 
		.s4 { fill: #508ca0 } 
		.s5 { fill: #e39624 } 
		.s6 { fill: #eaab85 } 
		.s7 { fill: #c3e4e1 } 
		.s8 { fill: #b7bde2 } 
		.s9 { fill: #3d688e } 
		.s10 { fill: #98cda4 } 
		.s11 { fill: #3e6e92 } 
		.s12 { fill: #de9526 } 
		.s13 { fill: #a071ad } 
		.s14 { fill: #c2e0b5 } 
		.s15 { fill: #df7876 } 
		.s16 { fill: #5392d3 } 
		.s17 { fill: #df9a79 } 
		.s18 { fill: none } 
		.s19 { fill: #cf5f5f } 
		.s20 { opacity: .26;fill: #b74d4d } 
		.s21 { fill: #242d54 } 
		.s22 { fill: #1d2645 } 
		.s23 { opacity: .27;fill: #a34b3e } 
		.s24 { fill: #212536 } 
		.s25 { fill: #a64d3f } 
		.s26 { fill: #a7225b } 
		.s27 { opacity: .17;fill: #ffffff } 
		.s28 { fill: #eab84f } 
		.s29 { fill: none;stroke: #eab84f;stroke-miterlimit:10;stroke-width: .6 } 
		.s30 { fill: #f8f8f8 } 
		.s31 { fill: #f1f1f1 } 
		.s32 { fill: #5d78b8 } 
		.s33 { fill: #fdfdfd } 
		.s34 { fill: #1f9d36 } 
		.s35 { fill: #a9bbbf } 
		.s36 { fill: #72dda5 } 
		.s37 { fill: #fffffb } 
		.s38 { fill: #71bc8f } 
		.s39 { fill: #68af84 } 
		.s40 { fill: #718f59 } 
	</style>
	<g id="BACKGROUND">
		<path fill-rule="evenodd" class="s0" d="m0 0h500v500h-500z"/>
	</g>
	<g id="OBJECTS">
		<g style="opacity: .4">
			<g id="Clip-Path" clip-path="url(#cp1)">
				<path fill-rule="evenodd" class="s1" d="m41 96.66h33.82v10.83h-33.82z"/>
			</g>
			<g id="Clip-Path" clip-path="url(#cp2)">
				<path fill-rule="evenodd" class="s1" d="m53.18 109.52h33.82v10.82h-33.82z"/>
			</g>
			<g id="Clip-Path" clip-path="url(#cp3)">
				<path fill-rule="evenodd" class="s1" d="m99 215.66h33.82v10.83h-33.82z"/>
			</g>
			<g id="Clip-Path" clip-path="url(#cp4)">
				<path fill-rule="evenodd" class="s1" d="m111.18 228.51h33.82v10.83h-33.82z"/>
			</g>
			<g id="Clip-Path" clip-path="url(#cp5)">
				<path fill-rule="evenodd" class="s1" d="m366 36.66h33.82v10.83h-33.82z"/>
			</g>
			<g id="Clip-Path" clip-path="url(#cp6)">
				<path fill-rule="evenodd" class="s1" d="m378.18 49.52l33.82-0.01v10.83h-33.82z"/>
			</g>
			<g id="Clip-Path" clip-path="url(#cp7)">
				<path fill-rule="evenodd" class="s1" d="m33 365.34h-33.82v-10.83h33.82z"/>
			</g>
			<g id="Clip-Path" clip-path="url(#cp8)">
				<path fill-rule="evenodd" class="s1" d="m470 347.34h-33.82v-10.83h33.82z"/>
			</g>
			<g id="Clip-Path" clip-path="url(#cp9)">
				<path fill-rule="evenodd" class="s1" d="m101 297.34h-33.82v-10.83h33.82z"/>
			</g>
			<g id="Clip-Path" clip-path="url(#cp10)">
				<path fill-rule="evenodd" class="s1" d="m20.82 352.49h-33.82v-10.83h33.82z"/>
			</g>
			<g id="Clip-Path" clip-path="url(#cp11)">
				<path fill-rule="evenodd" class="s1" d="m516 138.34h-33.82v-10.83h33.82z"/>
			</g>
			<g id="Clip-Path" clip-path="url(#cp12)">
				<path fill-rule="evenodd" class="s1" d="m503.82 125.49h-33.82v-10.83h33.82z"/>
			</g>
			<g id="Clip-Path" clip-path="url(#cp13)">
				<path fill-rule="evenodd" class="s1" d="m128.18 14.52h33.82v10.82h-33.82z"/>
			</g>
			<g id="Clip-Path" clip-path="url(#cp14)">
				<path fill-rule="evenodd" class="s1" d="m216.18 54.52l33.82-0.01v10.83h-33.82z"/>
			</g>
			<g id="Clip-Path" clip-path="url(#cp15)">
				<path fill-rule="evenodd" class="s1" d="m-7.82 49.52l33.82-0.01v10.83h-33.82z"/>
			</g>
			<g id="Clip-Path" clip-path="url(#cp16)">
				<path fill-rule="evenodd" class="s1" d="m277.18 148.51h33.82v10.83h-33.82z"/>
			</g>
			<g id="Clip-Path" clip-path="url(#cp17)">
				<path fill-rule="evenodd" class="s1" d="m419.18 318.51h33.82v10.83h-33.82z"/>
			</g>
			<g id="Clip-Path" clip-path="url(#cp18)">
				<path fill-rule="evenodd" class="s1" d="m385.18 415.51h33.82v10.83h-33.82z"/>
			</g>
			<g id="Clip-Path" clip-path="url(#cp19)">
				<path fill-rule="evenodd" class="s1" d="m436 444.34h-33.82v-10.83h33.82z"/>
			</g>
			<g id="Clip-Path" clip-path="url(#cp20)">
				<path fill-rule="evenodd" class="s1" d="m395.18 202.51h33.82v10.83h-33.82z"/>
			</g>
			<g id="Clip-Path" clip-path="url(#cp21)">
				<path fill-rule="evenodd" class="s1" d="m377.18 189.51h33.82v10.83h-33.82z"/>
			</g>
			<g id="Clip-Path" clip-path="url(#cp22)">
				<path fill-rule="evenodd" class="s1" d="m358.18 202.51h33.82v10.83h-33.82z"/>
			</g>
			<g id="Clip-Path" clip-path="url(#cp23)">
				<path fill-rule="evenodd" class="s1" d="m119.18 429.51h33.82v10.83h-33.82z"/>
			</g>
			<g id="Clip-Path" clip-path="url(#cp24)">
				<path fill-rule="evenodd" class="s1" d="m101.18 416.51h33.82v10.83h-33.82z"/>
			</g>
			<g id="Clip-Path" clip-path="url(#cp25)">
				<path fill-rule="evenodd" class="s1" d="m82.18 429.51h33.82v10.83h-33.82z"/>
			</g>
		</g>
		<g>
			<path fill-rule="evenodd" class="s2" d="m142.19 99.7h283.86v8.65h-283.87z"/>
			<g>
				<path id="XMLID_76_" fill-rule="evenodd" class="s3" d="m300.04 75.33h50.04v24.37h-50.04z"/>
				<g id="Clip-Path" clip-path="url(#cp26)">
					<path fill-rule="evenodd" class="s4" d="m323.56 71.91h35.28v15.61h-35.28z"/>
				</g>
				<g id="Clip-Path" clip-path="url(#cp27)">
					<path fill-rule="evenodd" class="s5" d="m306.24 87.52h6.41v17.1h-6.41z"/>
				</g>
			</g>
			<g>
				<path id="XMLID_75_" fill-rule="evenodd" class="s3" d="m246.81 75.33h50.04v24.37h-50.04z"/>
				<g id="Clip-Path" clip-path="url(#cp28)">
					<path fill-rule="evenodd" class="s4" d="m270.34 71.91h35.28v15.61h-35.28z"/>
				</g>
				<g id="Clip-Path" clip-path="url(#cp29)">
					<path fill-rule="evenodd" class="s5" d="m253.01 87.52h6.42v17.1h-6.42z"/>
				</g>
			</g>
			<g>
				<g>
					<path id="XMLID_74_" class="s6" d="m164.52 99.7h-11.46c-1.48 0-2.69-1.2-2.69-2.68v-12.21c0-4.18 3.4-7.58 7.58-7.58h1.68c4.18 0 7.58 3.4 7.58 7.58v12.21c0 1.48-1.21 2.68-2.69 2.68z"/>
					<g id="Clip-Path" clip-path="url(#cp30)">
						<path fill-rule="evenodd" class="s3" d="m147.5 83.14h17.24v10.27h-17.24z"/>
					</g>
					<g id="Clip-Path" clip-path="url(#cp31)">
						<path fill-rule="evenodd" class="s7" d="m159.82 83.14h3.14v5.27h-3.14z"/>
					</g>
				</g>
				<path fill-rule="evenodd" class="s4" d="m154.48 74.79h8.48v3.34h-8.48z"/>
			</g>
			<g>
				<g>
					<path id="XMLID_73_" class="s6" d="m184.99 99.7h-11.46c-1.48 0-2.69-1.2-2.69-2.68v-12.21c0-4.18 3.4-7.58 7.58-7.58h1.68c4.18 0 7.58 3.4 7.58 7.58v12.21c0 1.48-1.21 2.68-2.69 2.68z"/>
					<g id="Clip-Path" clip-path="url(#cp32)">
						<path fill-rule="evenodd" class="s3" d="m167.97 83.14h17.24v10.27h-17.24z"/>
					</g>
					<g id="Clip-Path" clip-path="url(#cp33)">
						<path fill-rule="evenodd" class="s7" d="m180.29 83.14h3.14v5.27h-3.14z"/>
					</g>
				</g>
				<path fill-rule="evenodd" class="s4" d="m174.95 74.79h8.48v3.34h-8.48z"/>
			</g>
			<g>
				<g>
					<path id="XMLID_72_" class="s6" d="m206.37 99.7h-11.46c-1.48 0-2.69-1.2-2.69-2.68v-12.21c0-4.18 3.4-7.58 7.58-7.58h1.68c4.18 0 7.58 3.4 7.58 7.58v12.21c0 1.48-1.21 2.68-2.69 2.68z"/>
					<g id="Clip-Path" clip-path="url(#cp34)">
						<path fill-rule="evenodd" class="s3" d="m189.35 83.14h17.24v10.27h-17.24z"/>
					</g>
					<g id="Clip-Path" clip-path="url(#cp35)">
						<path fill-rule="evenodd" class="s7" d="m201.67 83.14h3.14v5.27h-3.14z"/>
					</g>
				</g>
				<path fill-rule="evenodd" class="s4" d="m196.33 74.79h8.48v3.34h-8.48z"/>
			</g>
			<g>
				<g>
					<path id="XMLID_71_" class="s8" d="m370.04 100.16h-8.08c-1.54 0-2.79-1.25-2.79-2.79v-14.89c0-3.77 3.06-6.82 6.83-6.82 3.77 0 6.82 3.06 6.82 6.82v14.89c0 1.54-1.24 2.79-2.78 2.79z"/>
					<g id="Clip-Path" clip-path="url(#cp36)">
						<path fill-rule="evenodd" class="s9" d="m355.89 83.55h20.22v8.88h-20.22z"/>
					</g>
					<g id="Clip-Path" clip-path="url(#cp37)">
						<path fill-rule="evenodd" class="s9" d="m377.43 77.31h0.82v0.82h-0.82z"/>
					</g>
					<g id="Clip-Path" clip-path="url(#cp38)">
						<path fill-rule="evenodd" class="s3" d="m361.64 86.51h2.47v5.92h-2.47z"/>
					</g>
				</g>
				<path class="s5" d="m368.55 75.66h-5.1c-0.99 0-1.81-0.81-1.81-1.81 0-0.99 0.82-1.81 1.81-1.81h5.1c0.99 0 1.81 0.82 1.81 1.81 0 1-0.82 1.81-1.81 1.81z"/>
			</g>
			<g>
				<g>
					<path id="XMLID_70_" class="s8" d="m386.87 100.16h-8.08c-1.54 0-2.78-1.25-2.78-2.79v-14.89c0-3.77 3.05-6.82 6.82-6.82 3.77 0 6.82 3.06 6.82 6.82v14.89c0 1.54-1.24 2.79-2.78 2.79z"/>
					<g id="Clip-Path" clip-path="url(#cp39)">
						<path fill-rule="evenodd" class="s9" d="m372.72 83.55h20.22v8.88h-20.22z"/>
					</g>
					<g id="Clip-Path" clip-path="url(#cp40)">
						<path fill-rule="evenodd" class="s9" d="m394.26 77.31h0.82v0.82h-0.82z"/>
					</g>
					<g id="Clip-Path" clip-path="url(#cp41)">
						<path fill-rule="evenodd" class="s3" d="m378.47 86.51h2.47v5.92h-2.47z"/>
					</g>
				</g>
				<path class="s5" d="m385.38 75.66h-5.1c-0.99 0-1.81-0.81-1.81-1.81 0-0.99 0.82-1.81 1.81-1.81h5.1c0.99 0 1.81 0.82 1.81 1.81 0 1-0.82 1.81-1.81 1.81z"/>
			</g>
			<g>
				<g>
					<path id="XMLID_3_" class="s8" d="m402.79 100.16h-8.08c-1.53 0-2.78-1.25-2.78-2.79v-14.89c0-3.77 3.05-6.82 6.82-6.82 3.77 0 6.83 3.06 6.83 6.82v14.89c0 1.54-1.25 2.79-2.79 2.79z"/>
					<g id="Clip-Path" clip-path="url(#cp42)">
						<path fill-rule="evenodd" class="s9" d="m388.64 83.55h20.22v8.88h-20.22z"/>
					</g>
					<g id="Clip-Path" clip-path="url(#cp43)">
						<path fill-rule="evenodd" class="s9" d="m410.18 77.31h0.82v0.82h-0.82z"/>
					</g>
					<g id="Clip-Path" clip-path="url(#cp44)">
						<path fill-rule="evenodd" class="s3" d="m394.39 86.51h2.47v5.92h-2.47z"/>
					</g>
				</g>
				<path class="s5" d="m401.3 75.66h-5.1c-0.99 0-1.81-0.81-1.81-1.81 0-0.99 0.82-1.81 1.81-1.81h5.1c1 0 1.81 0.82 1.81 1.81 0 1-0.81 1.81-1.81 1.81z"/>
			</g>
			<g>
				<path id="XMLID_68_" fill-rule="evenodd" class="s3" d="m292.3 56.11h31.85v18.5h-31.85z"/>
				<g id="Clip-Path" clip-path="url(#cp45)">
					<g>
						<path class="s10" d="m312.75 65.28c1.27-1.24 1.29-3.26 0.05-4.52-1.24-1.27-3.26-1.29-4.52-0.05l-1.98 1.94 4.48 4.57z"/>
						<path class="s10" d="m305.56 63.38l-1.98 1.94c-1.27 1.24-1.29 3.26-0.05 4.52 1.24 1.26 3.26 1.28 4.52 0.05l1.98-1.94z"/>
					</g>
				</g>
			</g>
		</g>
		<g>
			<path fill-rule="evenodd" class="s2" d="m39.83 182.95h283.86v8.65h-283.86z"/>
			<g>
				<path id="XMLID_67_" fill-rule="evenodd" class="s3" d="m92.15 178.41h38.66v4.88h-38.66z"/>
				<g id="Clip-Path" clip-path="url(#cp46)">
					<path fill-rule="evenodd" class="s11" d="m95.94 176.9h1.84v8.99h-1.84z"/>
				</g>
				<g id="Clip-Path" clip-path="url(#cp47)">
					<path fill-rule="evenodd" class="s12" d="m102.22 175.6h1.3v9.75h-1.3z"/>
				</g>
				<g id="Clip-Path" clip-path="url(#cp48)">
					<path fill-rule="evenodd" class="s12" d="m100.16 175.49h1.3v9.75h-1.3z"/>
				</g>
			</g>
			<g>
				<path id="XMLID_66_" fill-rule="evenodd" class="s3" d="m130.81 178.28h-38.66v-4.87h38.66z"/>
				<g id="Clip-Path" clip-path="url(#cp49)">
					<path fill-rule="evenodd" class="s11" d="m127.02 179.8h-1.84v-8.99h1.84z"/>
				</g>
				<g id="Clip-Path" clip-path="url(#cp50)">
					<path fill-rule="evenodd" class="s12" d="m120.74 181.1h-1.3v-9.75h1.3z"/>
				</g>
				<g id="Clip-Path" clip-path="url(#cp51)">
					<path fill-rule="evenodd" class="s12" d="m122.8 181.21h-1.3v-9.75h1.3z"/>
				</g>
			</g>
			<g>
				<path id="XMLID_65_" fill-rule="evenodd" class="s3" d="m92.15 168.41h38.66v4.87h-38.66z"/>
				<g id="Clip-Path" clip-path="url(#cp52)">
					<path fill-rule="evenodd" class="s11" d="m95.94 166.89h1.84v8.99h-1.84z"/>
				</g>
				<g id="Clip-Path" clip-path="url(#cp53)">
					<path fill-rule="evenodd" class="s12" d="m102.22 165.59h1.3v9.75h-1.3z"/>
				</g>
				<g id="Clip-Path" clip-path="url(#cp54)">
					<path fill-rule="evenodd" class="s12" d="m100.16 165.48h1.3v9.75h-1.3z"/>
				</g>
			</g>
			<g>
				<path id="XMLID_64_" fill-rule="evenodd" class="s3" d="m130.81 168.28h-38.66v-4.88h38.66z"/>
				<g id="Clip-Path" clip-path="url(#cp55)">
					<path fill-rule="evenodd" class="s11" d="m127.02 169.79h-1.84v-8.99h1.84z"/>
				</g>
				<g id="Clip-Path" clip-path="url(#cp56)">
					<path fill-rule="evenodd" class="s12" d="m120.74 171.09h-1.3v-9.75h1.3z"/>
				</g>
				<g id="Clip-Path" clip-path="url(#cp57)">
					<path fill-rule="evenodd" class="s12" d="m122.8 171.2h-1.3v-9.75h1.3z"/>
				</g>
			</g>
			<g>
				<path id="XMLID_63_" fill-rule="evenodd" class="s3" d="m320.05 183.43h-24.11v-12.76h24.11z"/>
				<g id="Clip-Path" clip-path="url(#cp58)">
					<path fill-rule="evenodd" class="s11" d="m317.69 187.39h-1.15v-23.52h1.15z"/>
				</g>
				<g id="Clip-Path" clip-path="url(#cp59)">
					<path fill-rule="evenodd" class="s12" d="m313.77 190.8h-0.81v-25.52h0.81z"/>
				</g>
				<g id="Clip-Path" clip-path="url(#cp60)">
					<path fill-rule="evenodd" class="s12" d="m315.06 191.08h-0.81v-25.51h0.81z"/>
				</g>
			</g>
			<g>
				<path id="XMLID_62_" fill-rule="evenodd" class="s3" d="m320.05 170.23h-24.11v-12.75h24.11z"/>
				<g id="Clip-Path" clip-path="url(#cp61)">
					<path fill-rule="evenodd" class="s11" d="m317.69 174.2h-1.15v-23.53h1.15z"/>
				</g>
				<g id="Clip-Path" clip-path="url(#cp62)">
					<path fill-rule="evenodd" class="s12" d="m313.77 177.6h-0.81v-25.51h0.81z"/>
				</g>
				<g id="Clip-Path" clip-path="url(#cp63)">
					<path fill-rule="evenodd" class="s12" d="m315.06 177.89h-0.81v-25.52h0.81z"/>
				</g>
			</g>
			<g>
				<path id="XMLID_61_" fill-rule="evenodd" class="s3" d="m293.45 158.62v24.11h-12.75v-24.11z"/>
				<g id="Clip-Path" clip-path="url(#cp64)">
					<path fill-rule="evenodd" class="s11" d="m297.42 160.99v1.15h-23.53v-1.15z"/>
				</g>
				<g id="Clip-Path" clip-path="url(#cp65)">
					<path fill-rule="evenodd" class="s12" d="m300.82 164.91v0.81l-25.51-0.01v-0.81z"/>
				</g>
				<g id="Clip-Path" clip-path="url(#cp66)">
					<path fill-rule="evenodd" class="s12" d="m301.1 163.62v0.81h-25.51v-0.81z"/>
				</g>
			</g>
			<g>
				<path id="XMLID_60_" fill-rule="evenodd" class="s3" d="m146.28 161.92h15.47v22.85h-15.47z"/>
				<g id="Clip-Path" clip-path="url(#cp67)">
					<path fill-rule="evenodd" class="s13" d="m153.84 158.82h2.58v29.05h-2.58z"/>
				</g>
				<g id="Clip-Path" clip-path="url(#cp68)">
					<path fill-rule="evenodd" class="s13" d="m142.5 167.76h23.03v1.37h-23.03z"/>
				</g>
			</g>
			<g>
				<path id="XMLID_59_" fill-rule="evenodd" class="s3" d="m164.02 161.92h15.47v22.85h-15.47z"/>
				<g id="Clip-Path" clip-path="url(#cp69)">
					<path fill-rule="evenodd" class="s13" d="m171.58 158.82h2.58v29.05h-2.58z"/>
				</g>
				<g id="Clip-Path" clip-path="url(#cp70)">
					<path fill-rule="evenodd" class="s13" d="m160.24 167.76h23.03v1.37h-23.03z"/>
				</g>
			</g>
			<g>
				<path id="XMLID_58_" fill-rule="evenodd" class="s3" d="m198.99 183.81v-15.47h22.86v15.47z"/>
				<g id="Clip-Path" clip-path="url(#cp71)">
					<path fill-rule="evenodd" class="s13" d="m195.9 176.25v-2.58h29.04v2.58z"/>
				</g>
				<g id="Clip-Path" clip-path="url(#cp72)">
					<path fill-rule="evenodd" class="s13" d="m204.84 187.59v-23.03h1.37v23.03z"/>
				</g>
			</g>
			<g>
				<g>
					<path id="XMLID_57_" class="s6" d="m195.45 184.32h-11.46c-1.48 0-2.68-1.21-2.68-2.69v-12.2c0-4.19 3.39-7.58 7.58-7.58h1.67c4.19 0 7.58 3.39 7.58 7.58v12.2c0 1.48-1.2 2.69-2.69 2.69z"/>
					<g id="Clip-Path" clip-path="url(#cp73)">
						<path fill-rule="evenodd" class="s3" d="m178.43 167.75h17.25v10.27h-17.25z"/>
					</g>
					<g id="Clip-Path" clip-path="url(#cp74)">
						<path fill-rule="evenodd" class="s7" d="m190.75 167.75h3.15v5.27h-3.15z"/>
					</g>
				</g>
				<path fill-rule="evenodd" class="s4" d="m185.41 159.41h8.49v3.34h-8.49z"/>
			</g>
			<g>
				<g>
					<path id="XMLID_2_" class="s8" d="m234.93 184.32h-8.08c-1.53 0-2.78-1.25-2.78-2.79v-14.89c0-3.77 3.05-6.82 6.82-6.82 3.77 0 6.83 3.05 6.83 6.82v14.89c0 1.54-1.25 2.79-2.79 2.79z"/>
					<g id="Clip-Path" clip-path="url(#cp75)">
						<path fill-rule="evenodd" class="s9" d="m220.78 167.71h20.22v8.88h-20.22z"/>
					</g>
					<g id="Clip-Path" clip-path="url(#cp76)">
						<path fill-rule="evenodd" class="s9" d="m242.32 161.46h0.82v0.82h-0.82z"/>
					</g>
					<g id="Clip-Path" clip-path="url(#cp77)">
						<path fill-rule="evenodd" class="s3" d="m226.53 170.67h2.47v5.92h-2.47z"/>
					</g>
				</g>
				<path class="s5" d="m233.44 159.82h-5.1c-0.99 0-1.81-0.82-1.81-1.81 0-1 0.82-1.81 1.81-1.81h5.1c1 0 1.81 0.81 1.81 1.81 0 0.99-0.81 1.81-1.81 1.81z"/>
			</g>
			<g>
				<g>
					<path id="XMLID_1_" class="s8" d="m267.23 184.32h-8.08c-1.54 0-2.78-1.25-2.78-2.79v-14.89c0-3.77 3.05-6.82 6.82-6.82 3.77 0 6.82 3.05 6.82 6.82v14.89c0 1.54-1.24 2.79-2.78 2.79z"/>
					<g id="Clip-Path" clip-path="url(#cp78)">
						<path fill-rule="evenodd" class="s9" d="m253.08 167.71h20.22v8.88h-20.22z"/>
					</g>
					<g id="Clip-Path" clip-path="url(#cp79)">
						<path fill-rule="evenodd" class="s9" d="m274.62 161.46h0.82v0.82h-0.82z"/>
					</g>
					<g id="Clip-Path" clip-path="url(#cp80)">
						<path fill-rule="evenodd" class="s3" d="m258.83 170.67h2.47v5.92h-2.47z"/>
					</g>
				</g>
				<path class="s5" d="m265.74 159.82h-5.1c-0.99 0-1.81-0.82-1.81-1.81 0-1 0.82-1.81 1.81-1.81h5.1c0.99 0 1.81 0.81 1.81 1.81 0 0.99-0.82 1.81-1.81 1.81z"/>
			</g>
			<g>
				<path class="s6" d="m72.4 162.97h-2.68q-0.12-0.01-0.13-0.13v-3.89c0-0.81 0.66-1.47 1.47-1.47 0.81 0 1.47 0.66 1.47 1.47v3.89q-0.01 0.12-0.13 0.13z"/>
				<g>
					<path id="XMLID_54_" class="s14" d="m74.2 183.41h-6.28c-1.19 0-2.16-0.97-2.16-2.17v-11.56c0-2.93 2.37-5.3 5.3-5.3 2.93 0 5.3 2.37 5.3 5.3v11.56c0 1.2-0.97 2.17-2.16 2.17z"/>
					<g id="Clip-Path" clip-path="url(#cp81)">
						<path fill-rule="evenodd" class="s3" d="m67.17 170.76h7.53v10.22h-7.53z"/>
					</g>
					<g id="Clip-Path" clip-path="url(#cp82)">
						<path fill-rule="evenodd" class="s3" d="m91.31 157.48h1.28v1.28h-1.28z"/>
					</g>
					<g id="Clip-Path" clip-path="url(#cp83)">
						<path fill-rule="evenodd" class="s13" d="m71 170.76h2.04v4.86h-2.04z"/>
					</g>
				</g>
				<path class="s15" d="m73.04 165.53h-3.96c-0.77 0-1.4-0.64-1.4-1.41 0-0.77 0.63-1.4 1.4-1.4h3.96c0.77 0 1.41 0.63 1.41 1.4 0 0.77-0.64 1.41-1.41 1.41z"/>
			</g>
			<g>
				<path class="s6" d="m138.82 163.43h-2.68q-0.12-0.02-0.13-0.13v-3.9c0-0.81 0.66-1.47 1.47-1.47 0.81 0 1.47 0.66 1.47 1.47v3.9q-0.01 0.11-0.13 0.13z"/>
				<g>
					<path id="XMLID_53_" class="s14" d="m140.62 183.86h-6.28c-1.19 0-2.16-0.97-2.16-2.16v-11.57c0-2.93 2.37-5.3 5.3-5.3 2.93 0 5.3 2.37 5.3 5.3v11.57c0 1.19-0.97 2.16-2.16 2.16z"/>
					<g id="Clip-Path" clip-path="url(#cp84)">
						<path fill-rule="evenodd" class="s3" d="m133.58 171.22h7.54v10.22h-7.54z"/>
					</g>
					<g id="Clip-Path" clip-path="url(#cp85)">
						<path fill-rule="evenodd" class="s3" d="m157.72 157.93h1.28v1.28h-1.28z"/>
					</g>
					<g id="Clip-Path" clip-path="url(#cp86)">
						<path fill-rule="evenodd" class="s13" d="m137.41 171.22h2.05v4.85h-2.05z"/>
					</g>
				</g>
				<path class="s15" d="m139.46 165.98h-3.96c-0.78 0-1.41-0.63-1.41-1.41 0-0.77 0.63-1.4 1.41-1.4h3.96c0.77 0 1.4 0.63 1.4 1.4 0 0.78-0.63 1.41-1.4 1.41z"/>
			</g>
			<g>
				<path class="s6" d="m85.14 163.43h-2.68q-0.12-0.02-0.13-0.13v-3.9c0-0.81 0.66-1.47 1.47-1.47 0.81 0 1.47 0.66 1.47 1.47v3.9q-0.01 0.11-0.13 0.13z"/>
				<g>
					<path id="XMLID_52_" class="s14" d="m86.94 183.86h-6.28c-1.19 0-2.16-0.97-2.16-2.16v-11.57c0-2.93 2.37-5.3 5.3-5.3 2.93 0 5.3 2.37 5.3 5.3v11.57c0 1.19-0.97 2.16-2.16 2.16z"/>
					<g id="Clip-Path" clip-path="url(#cp87)">
						<path fill-rule="evenodd" class="s3" d="m79.9 171.22h7.54v10.22h-7.54z"/>
					</g>
					<g id="Clip-Path" clip-path="url(#cp88)">
						<path fill-rule="evenodd" class="s3" d="m104.05 157.93h1.27v1.28h-1.27z"/>
					</g>
					<g id="Clip-Path" clip-path="url(#cp89)">
						<path fill-rule="evenodd" class="s13" d="m83.73 171.22h2.05v4.85h-2.05z"/>
					</g>
				</g>
				<path class="s15" d="m85.78 165.98h-3.96c-0.77 0-1.41-0.63-1.41-1.41 0-0.77 0.64-1.4 1.41-1.4h3.96c0.77 0 1.4 0.63 1.4 1.4 0 0.78-0.63 1.41-1.4 1.41z"/>
			</g>
			<g>
				<path id="XMLID_51_" fill-rule="evenodd" class="s3" d="m42.11 167.94h23.65v15.39h-23.65z"/>
				<g id="Clip-Path" clip-path="url(#cp90)">
					<g>
						<path class="s10" d="m57.3 175.57c0.94-1.03 0.95-2.72 0.03-3.77-0.92-1.05-2.42-1.06-3.36-0.03l-1.47 1.61 3.33 3.8z"/>
						<path class="s10" d="m51.95 173.99l-1.47 1.61c-0.94 1.03-0.95 2.71-0.04 3.76 0.92 1.05 2.43 1.07 3.36 0.04l1.48-1.61z"/>
					</g>
				</g>
			</g>
		</g>
		<g>
			<path fill-rule="evenodd" class="s2" d="m150.37 240.72h283.87l-0.01 8.65h-283.86z"/>
			<g>
				<path id="XMLID_50_" fill-rule="evenodd" class="s3" d="m266.83 218.62h50.04v24.38h-50.04z"/>
				<g id="Clip-Path" clip-path="url(#cp91)">
					<path fill-rule="evenodd" class="s4" d="m290.35 215.2h35.29v15.61h-35.29z"/>
				</g>
				<g id="Clip-Path" clip-path="url(#cp92)">
					<path fill-rule="evenodd" class="s5" d="m273.03 230.81h6.42v17.11h-6.42z"/>
				</g>
			</g>
			<g>
				<path id="XMLID_49_" fill-rule="evenodd" class="s3" d="m175.39 217.26h50.04v24.38h-50.04z"/>
				<g id="Clip-Path" clip-path="url(#cp93)">
					<path fill-rule="evenodd" class="s4" d="m198.92 213.84h35.28v15.61h-35.28z"/>
				</g>
				<g id="Clip-Path" clip-path="url(#cp94)">
					<path fill-rule="evenodd" class="s5" d="m181.59 229.45h6.42v17.1h-6.42z"/>
				</g>
			</g>
			<g>
				<path id="XMLID_48_" fill-rule="evenodd" class="s3" d="m404.67 216.96h15.46v22.86h-15.46z"/>
				<g id="Clip-Path" clip-path="url(#cp95)">
					<path fill-rule="evenodd" class="s13" d="m412.23 213.87h2.58v29.04h-2.58z"/>
				</g>
				<g id="Clip-Path" clip-path="url(#cp96)">
					<path fill-rule="evenodd" class="s13" d="m400.88 222.8h23.03v1.38h-23.03z"/>
				</g>
			</g>
			<g>
				<g>
					<path id="XMLID_47_" class="s6" d="m397.43 240.72h-11.46c-1.48 0-2.68-1.2-2.68-2.68v-12.21c0-4.18 3.39-7.58 7.58-7.58h1.67c4.18 0 7.58 3.4 7.58 7.58v12.21c0 1.48-1.21 2.68-2.69 2.68z"/>
					<g id="Clip-Path" clip-path="url(#cp97)">
						<path fill-rule="evenodd" class="s3" d="m380.41 224.16h17.24v10.27h-17.24z"/>
					</g>
					<g id="Clip-Path" clip-path="url(#cp98)">
						<path fill-rule="evenodd" class="s7" d="m392.73 224.16h3.14v5.27h-3.14z"/>
					</g>
				</g>
				<path fill-rule="evenodd" class="s4" d="m387.39 215.81h8.49v3.34h-8.49z"/>
			</g>
			<g>
				<path id="XMLID_46_" fill-rule="evenodd" class="s3" d="m346.44 211.34h33.21v29.39h-33.21z"/>
				<g id="Clip-Path" clip-path="url(#cp99)">
					<g>
						<path class="s16" d="m382.54 225.95c5.36-5.25 5.45-13.85 0.2-19.21-5.25-5.36-13.85-5.45-19.21-0.2l-8.41 8.24 19.01 19.41z"/>
						<path class="s16" d="m351.95 217.88l-8.41 8.24c-5.36 5.25-5.44 13.85-0.19 19.21 5.25 5.36 13.85 5.45 19.21 0.2l8.41-8.24z"/>
					</g>
				</g>
			</g>
			<g>
				<path id="XMLID_45_" fill-rule="evenodd" class="s3" d="m154.47 228.11h16.83v14.89h-16.83z"/>
				<g id="Clip-Path" clip-path="url(#cp100)">
					<g>
						<path class="s16" d="m172.77 235.51c2.71-2.66 2.76-7.02 0.09-9.74-2.66-2.71-7.02-2.76-9.73-0.1l-4.26 4.18 9.63 9.84z"/>
						<path class="s16" d="m157.26 231.42l-4.26 4.18c-2.71 2.66-2.76 7.02-0.1 9.73 2.66 2.72 7.02 2.76 9.74 0.1l4.26-4.17z"/>
					</g>
				</g>
			</g>
			<g>
				<path id="XMLID_44_" fill-rule="evenodd" class="s3" d="m321.72 241.86v-31.84h18.5v31.84z"/>
				<g id="Clip-Path" clip-path="url(#cp101)">
					<g>
						<path class="s10" d="m330.89 221.41c-1.24-1.26-3.26-1.28-4.52-0.04-1.26 1.23-1.28 3.26-0.05 4.52l1.94 1.98 4.57-4.48z"/>
						<path class="s10" d="m328.99 228.61l1.94 1.98c1.24 1.26 3.26 1.28 4.52 0.05 1.26-1.24 1.28-3.26 0.05-4.52l-1.94-1.98z"/>
					</g>
				</g>
			</g>
		</g>
		<path fill-rule="evenodd" class="s2" d="m66.61 340.22l7.28 159.78h349.3l10.27-163.09z"/>
		<g>
			<path class="s17" d="m178.86 287.62l-0.27 1.05-4.62 17.54c0 0-3.26 7.17-7.5 8.47-4.24 1.31-11.86 2.26-9.46 3.91 5.22 3.59 13.04 1.96 15 0 1.96-1.95 4.56-6.52 5.54-5.54 0.98 0.98-0.32 7.83 3.91 7.17 4.24-0.65 1.31-0.32 0-2.93-1.3-2.61 3.92-8.48 0-12.06l5.55-5.22"/>
			<path class="s17" d="m321.64 287.62l1.31 0.33 5.86 18.26c0 0 3.26 7.17 7.5 8.47 4.24 1.31 11.86 2.26 9.46 3.91-5.22 3.59-13.04 1.96-15 0-1.96-1.95-4.56-6.52-5.54-5.54-0.98 0.98 0.32 7.83-3.91 7.17-4.24-0.65-1.31-0.32 0-2.93 1.3-2.61-3.92-8.48 0-12.06l-5.55-5.22"/>
			<path class="s18" d="m260.47 187.19q0 0.02-0.01 0.05 0.05 0 0.1 0.01-0.04-0.03-0.09-0.06z"/>
			<g>
				<path id="XMLID_43_" class="s19" d="m257.1 235.95c-3.42-19.53 0.51-38.56 3.36-48.71-5.09-0.55-9.44-0.81-10.54-0.67-2.6 0.32-8.8 1.95-8.8 1.95 0 0-2.11 0.55-5.25 1.5 3.49 10.91 7.99 29.27 6.48 48.16q0.17 1.03 0.24 2.01c0.84 11.78-2.18 60.22-6.36 83.08l33.08-1.01c-6.02-21.99-11.78-71.95-12.27-83.94q-0.04-1.15 0.06-2.37z"/>
				<g id="Clip-Path" clip-path="url(#cp102)">
					<path class="s20" d="m236.84 194.34c0 0 13.41 35.58 5.91 137.29l-13.04-1.3c0 0 0.89-135.39 7.13-135.99z"/>
				</g>
				<g id="Clip-Path" clip-path="url(#cp103)">
					<path class="s20" d="m257.73 199.1c0 0-5.85 19.74-0.63 58.86 5.21 39.12 5.86 74.32 5.86 74.32l18.26-4.56-13.37-73.02c0 0-5.25-55.77-10.12-55.6z"/>
				</g>
			</g>
			<g>
				<path id="XMLID_42_" class="s21" d="m288.13 135.65c0 0-6.36-9.11-2.55-18.22 3.43-8.2-13-7.31-16.36-7.05q1.31-0.8 2.71-1.43c3.71-1.67 7.81-2.34 11.81-1.44 0.2 0.05 0.28-0.26 0.08-0.3-3.82-0.87-7.72-0.34-11.32 1.15q-1.88 0.78-3.62 1.85-0.08 0.05-0.16 0.11 0.25-0.31 0.45-0.6c1.22-0.76 2.26-1.8 2.7-3.1 0.57-1.71-0.07-3.66-1.17-5.01-1.12-1.37-2.75-1.97-4.4-2.44-0.83-0.23-1.78-0.42-2.5-0.94-1-0.72-0.97-1.92-0.74-3.01 0.04-0.2-0.26-0.29-0.31-0.09-0.36 1.76 0.02 3.12 1.76 3.82 2.06 0.83 4.35 0.97 5.89 2.79 1.8 2.13 1.81 5-0.3 6.87q-0.2 0.17-0.41 0.34c4.83-7.89-11.5-5.08-12.5-15.9-1.06-11.44-22.89 4.03-31.58 0.64-8.69-3.39-13.99 9.75-10.81 16.32 3.18 6.57-2.54 9.11-10.17 9.11-7.63 0-3.6 10.38 1.91 15.05 5.51 4.66 2.33 5.08-4.03 11.44-6.36 6.36 11.44 13.56 10.81 17.59-0.64 4.03 10.38 1.91 12.29 8.48 1.91 6.57 14.62 1.27 14.62 1.27 2.12-4.03 17.59-0.85 20.35 5.3 2.75 6.14 8.69-11.87 17.59-11.23 8.9 0.63-0.85-14.63 8.9-12.08 9.74 2.54 1.06-19.29 1.06-19.29z"/>
				<g id="Clip-Path" clip-path="url(#cp104)">
					<path class="s22" d="m271.54 149.74c-0.52 13.9-12.97 24.27-25.56 24.27-12.6 0-22.81-11.27-22.81-25.19 0-13.91 12.52-34.57 25.11-34.57 12.59 0 24.18 10.99 23.26 35.49z"/>
				</g>
			</g>
			<g>
				<path id="XMLID_41_" class="s17" d="m236.84 161.72c0 0 5.93 22.46 0 29.67l14.83 5.93 6.78-7.2c0 0-5.93-21.19 0-30.94z"/>
				<g id="Clip-Path" clip-path="url(#cp105)">
					<path fill-rule="evenodd" class="s23" d="m255.28 172.1c-16.41 0-29.67-10.32-29.67-23.1 0-12.77 13.26-23.1 29.67-23.1 16.4 0 29.67 10.33 29.67 23.1 0 12.78-13.27 23.1-29.67 23.1z"/>
				</g>
			</g>
			<path class="s17" d="m269.32 137.76c0.23 2.23 5.63 29.36-21.88 29.28-12.09-0.03-21.89-13.11-21.89-29.28 0-16.18 9.87-31.06 21.96-31.06 12.09 0 19.71 10.76 21.81 31.06z"/>
			<path class="s21" d="m224.55 133.32c0 0 2.75-3.18 6.14 3.61 0 0-1.69-9.12 0-11.87 1.7-2.76 8.9-4.88 9.33-9.33 0.42-4.45-5.09-6.36-5.09-6.36 0 0-13.99 14.2-10.38 23.95z"/>
			<path class="s21" d="m239.1 104.28c0 0-8.42 4.67 0.79 8.99 9.22 4.32 22.46 2.53 17.97 6.38-4.48 3.86-5.36 8.14 1.01 7.18 6.37-0.96 7.63 2.3 3.05 4.53 0 0 10.45-3.32 4.76-5.9-5.69-2.58-8.24-3-4.1-4.55 4.13-1.56 9.61-5.15 3.04-11.42-6.57-6.27-26.52-5.21-26.52-5.21z"/>
			<path class="s17" d="m230.57 137.62c0.8 3.59-0.77 7.01-3.51 7.62-2.74 0.61-5.61-1.81-6.42-5.41-0.8-3.59 0.77-7.01 3.51-7.62 2.74-0.61 5.62 1.81 6.42 5.41z"/>
			<g>
				<g>
					<path class="s3" d="m243.83 136.87c0 1.84-1.16 3.34-2.59 3.34-1.44 0-2.6-1.5-2.6-3.34 0-1.84 1.16-3.34 2.6-3.34 1.43 0 2.59 1.5 2.59 3.34z"/>
					<path fill-rule="evenodd" class="s24" d="m241.24 138.3c-0.62 0-1.12-0.64-1.12-1.43 0-0.79 0.5-1.43 1.12-1.43 0.61 0 1.11 0.64 1.11 1.43 0 0.79-0.5 1.43-1.11 1.43z"/>
					<path class="s24" d="m243.31 134.57q-0.32-0.53-0.86-0.89c-0.36-0.22-0.78-0.35-1.21-0.36-0.44 0.01-0.86 0.14-1.22 0.37q-0.53 0.35-0.86 0.88-0.15 0.24-0.26 0.5l-0.68-0.16 0.62 0.33q-0.06 0.14-0.09 0.29l-0.96 0.02 0.91 0.16q-0.12 0.58-0.06 1.16c0.09-0.78 0.34-1.52 0.79-2.12 0.44-0.59 1.1-1.01 1.81-1.01 0.7 0 1.36 0.42 1.8 1.01 0.45 0.6 0.7 1.34 0.79 2.12 0.08-0.78-0.08-1.61-0.52-2.3z"/>
				</g>
				<g>
					<path fill-rule="evenodd" class="s3" d="m258.08 139.57c-1.43 0-2.59-1.49-2.59-3.33 0-1.85 1.16-3.34 2.59-3.34 1.44 0 2.6 1.49 2.6 3.34 0 1.84-1.16 3.33-2.6 3.33z"/>
					<path fill-rule="evenodd" class="s24" d="m258.08 137.67c-0.61 0-1.11-0.64-1.11-1.43 0-0.8 0.5-1.43 1.11-1.43 0.62 0 1.12 0.63 1.12 1.43 0 0.79-0.5 1.43-1.12 1.43z"/>
					<path class="s24" d="m256 133.93q0.33-0.53 0.87-0.88c0.36-0.23 0.78-0.36 1.21-0.36 0.43 0 0.86 0.13 1.22 0.36q0.53 0.35 0.86 0.88 0.15 0.25 0.26 0.51l0.68-0.16-0.62 0.32q0.06 0.15 0.09 0.29l0.96 0.02-0.91 0.17q0.12 0.58 0.06 1.16c-0.09-0.78-0.34-1.52-0.79-2.12-0.44-0.59-1.1-1.02-1.81-1.01-0.7-0.01-1.36 0.42-1.8 1.01-0.45 0.6-0.7 1.34-0.79 2.12-0.09-0.78 0.08-1.61 0.51-2.31z"/>
				</g>
				<g>
					<path class="s25" d="m249.46 136.37c1.16 2.82 2.28 5.67 3.21 8.57 0.22 0.71 0.46 1.43 0.59 2.16 0.12 0.7-0.01 0.79-0.69 1.04-1.56 0.56-3.29 0.77-4.92 0.97-0.41 0.05-0.41 0.69 0 0.64 1.74-0.21 3.61-0.42 5.25-1.05 1.4-0.54 1.08-1.49 0.74-2.74-0.92-3.33-2.26-6.57-3.57-9.76-0.15-0.37-0.77-0.21-0.61 0.17z"/>
				</g>
				<g>
					<path class="s26" d="m239.74 154.89c0.98 1.36 2.42 2.5 3.9 3.25 3.28 1.68 6.89 1.26 10.1-0.38 0.37-0.19 0.04-0.74-0.32-0.55-3.14 1.6-6.67 1.95-9.81 0.19-1.25-0.69-2.48-1.66-3.32-2.83-0.23-0.33-0.79-0.02-0.55 0.32z"/>
				</g>
				<g>
					<path class="s21" d="m242.36 127.18c-3.16-0.71-5.93 1.23-7.07 4.11-0.27 0.69 0.84 0.99 1.12 0.31 0.9-2.29 3.18-3.86 5.64-3.31 0.72 0.16 1.03-0.95 0.31-1.11z"/>
				</g>
				<g>
					<path class="s21" d="m255.9 125.9c3.16-0.7 5.93 1.24 7.07 4.12 0.27 0.69-0.85 0.99-1.12 0.3-0.9-2.28-3.18-3.85-5.64-3.3-0.72 0.16-1.03-0.95-0.31-1.12z"/>
				</g>
				<g>
					<g>
						<g>
							<g id="Clip-Path" clip-path="url(#cp106)">
								<path fill-rule="evenodd" class="s27" d="m233.02 138.83l14.63-13.77 1.06 1.27-15.69 16.53z"/>
							</g>
							<g id="Clip-Path" clip-path="url(#cp107)">
								<path fill-rule="evenodd" class="s27" d="m235.14 141.38l14.63-14.2h0.42l-15.68 16.53z"/>
							</g>
							<g id="Clip-Path" clip-path="url(#cp108)">
								<path fill-rule="evenodd" class="s27" d="m236.34 148.3l19.5-18.37 1.41 1.7-20.91 22.04z"/>
							</g>
						</g>
						<path class="s28" d="m241.66 145.29c-4.12 0-7.47-4.06-7.47-9.06 0-4.99 3.35-9.06 7.47-9.06 4.12 0 7.47 4.07 7.47 9.06 0 5-3.35 9.06-7.47 9.06zm0-17.52c-3.73 0-6.76 3.8-6.76 8.47 0 4.67 3.03 8.46 6.76 8.46 3.73 0 6.76-3.79 6.76-8.46 0-4.67-3.03-8.47-6.76-8.47z"/>
					</g>
					<g>
						<g>
							<g id="Clip-Path" clip-path="url(#cp109)">
								<path fill-rule="evenodd" class="s27" d="m250.61 137.77l14.63-13.77 1.06 1.27-15.69 16.53z"/>
							</g>
							<g id="Clip-Path" clip-path="url(#cp110)">
								<path fill-rule="evenodd" class="s27" d="m252.73 140.31l14.63-14.19h0.42l-15.68 16.53z"/>
							</g>
							<g id="Clip-Path" clip-path="url(#cp111)">
								<path fill-rule="evenodd" class="s27" d="m253.93 147.24l19.5-18.37 1.41 1.7-20.91 22.04z"/>
							</g>
						</g>
						<path class="s28" d="m259.25 144.24c-4.12 0-7.47-4.07-7.47-9.06 0-5 3.35-9.06 7.47-9.06 4.12 0 7.47 4.06 7.47 9.06 0 4.99-3.35 9.06-7.47 9.06zm0-17.53c-3.73 0-6.76 3.8-6.76 8.47 0 4.67 3.03 8.46 6.76 8.46 3.73 0 6.76-3.79 6.76-8.46 0-4.67-3.03-8.47-6.76-8.47z"/>
					</g>
					<path class="s29" d="m248.77 135.44c0 0 1.84-1.91 3.33 0"/>
					<g>
						<path class="s28" d="m234.77 136.33q-2.54-1.38-5.08-2.75c-0.36-0.2-0.68 0.35-0.32 0.55q2.54 1.37 5.08 2.75c0.36 0.2 0.68-0.35 0.32-0.55z"/>
					</g>
					<g>
						<path class="s28" d="m266.63 135.14q1.24-0.83 2.48-1.65c0.33-0.22 0.02-0.78-0.33-0.55q-1.24 0.82-2.48 1.65c-0.33 0.22-0.02 0.77 0.33 0.55z"/>
					</g>
				</g>
			</g>
			<path class="s17" d="m237.43 190.56c0 0-1.85 1.22-1.52 1.87 0.32 0.65 4.56 10.76 13.04 13.69 0 0 12.06-10.43 11.41-14.99 0 0-0.98-2.94-3.92-2.94-2.93 0.01-19.01 2.37-19.01 2.37z"/>
			<path class="s30" d="m257.1 235.95c1.09-13.65 15.12-32.63 16.24-36.47 0.95-3.28-8.93-9.83-12.78-12.23q-0.05-0.01-0.1-0.01c-2.85 10.15-6.78 29.18-3.36 48.71z"/>
			<path class="s30" d="m224.01 200.75c1.55 3.72 16.11 23.71 18.34 37.43 1.51-18.9-2.99-37.25-6.48-48.16-1.79 0.53-3.91 1.2-6.16 1.97-3.37 3.17-6.51 6.81-5.7 8.76z"/>
			<path class="s31" d="m326.53 295.45c0 0-41.72-102.04-47.27-104.65-3.2-1.51-11.65-2.8-18.7-3.55 3.85 2.4 13.73 8.95 12.78 12.23-1.12 3.84-15.14 22.81-16.24 36.47 0.89 5.12 2.29 10.28 4.36 15.32-2.07-5.04-3.47-10.2-4.36-15.32q-0.1 1.22-0.06 2.37c0.49 11.98 6.25 61.95 12.27 83.94l13.21-0.41-6.19-44.66 1.95-39.12 32.93 64.88z"/>
			<path class="s31" d="m242.59 240.19q-0.07-0.98-0.24-2.01c-0.41 5.13-1.26 10.3-2.7 15.38 1.44-5.08 2.29-10.25 2.7-15.38-2.23-13.72-16.79-33.71-18.34-37.43-0.81-1.95 2.33-5.59 5.7-8.76-7.83 2.66-17.3 6.56-20.21 10.55-5.22 7.17-31.95 83.13-34.55 97.47l21.51 7.17 23.15-67.48 4.23 37.49-5.21 46.62 17.6-0.54c4.18-22.86 7.2-71.3 6.36-83.08z"/>
			<path fill-rule="evenodd" class="s30" d="m174.94 300.01l1.42-5.85 24.99 5.2-3.59 8.47z"/>
			<path fill-rule="evenodd" class="s30" d="m327.03 296.05l-1.71-4.83-20.71 6.63 3.79 6.86z"/>
		</g>
		<path fill-rule="evenodd" class="s32" d="m439.01 343.91h-378.31l-7.37-25.38h393.87z"/>
		<g>
			<path id="FV Farmacia" class="s3" aria-label="FV FARMACIA"  d="m164.1 379v-15.3h11.8v3h-7.4v2.8h7v3h-7v6.5zm20.3 0l-6.3-15.3h4.4l4.5 11.3 4.5-11.3h4.3l-6.2 15.3zm21.7 0v-15.3h11.8v3h-7.4v2.8h7v3h-7v6.5zm24.3 0l-1-2.8h-6.9l-1 2.8h-4.4l6.2-15.3h5.2l6.3 15.3zm-4.5-11.7l-2.3 6.1h4.7zm15.5 3.2h1.8q1.4 0 2-0.5 0.6-0.5 0.6-1.5 0-1.1-0.6-1.5-0.6-0.5-2-0.5h-1.8zm1.2 2.8h-1.2v5.8h-4.4v-15.3h6.7q3.3 0 4.9 1 1.5 1 1.5 3.2 0 1.5-0.8 2.5-0.8 0.9-2.4 1.4 0.9 0.2 1.6 0.8 0.7 0.7 1.4 2l2.4 4.4h-4.7l-2-3.8q-0.7-1.2-1.3-1.6-0.6-0.4-1.7-0.4zm12.4 5.8v-15.3h5.6l3.8 8.1 3.9-8.1h5.5v15.3h-4.1v-11.2l-3.9 8.2h-2.8l-3.9-8.2v11.2zm34.4 0l-1.1-2.8h-6.8l-1.1 2.8h-4.4l6.3-15.3h5.2l6.3 15.3zm-4.5-11.8l-2.3 6.1h4.6zm24.6 7.7v3.2q-1.2 0.6-2.5 0.9-1.3 0.3-2.8 0.3-4.2 0-6.7-2.2-2.4-2.1-2.4-5.8 0-3.7 2.4-5.8 2.5-2.1 6.7-2.1 1.5 0 2.8 0.3 1.3 0.2 2.5 0.8v3.2q-1.2-0.8-2.4-1.1-1.2-0.4-2.5-0.4-2.3 0-3.7 1.4-1.3 1.3-1.3 3.7 0 2.4 1.3 3.7 1.4 1.4 3.7 1.4 1.3 0 2.5-0.4 1.2-0.3 2.4-1.1zm3.5 4.1v-15.4h4.4v15.4zm20.4 0l-1.1-2.8h-6.8l-1.1 2.8h-4.4l6.3-15.4h5.2l6.3 15.4zm-4.5-11.8l-2.4 6.1h4.7z"/>
		</g>
		<g id="logo fv farmacia">
			<path id="Path 1" class="s33" d="m278.09 405.31c-0.64 0.16-1.74 0.55-2.44 0.87-0.7 0.32-1.67 0.94-2.17 1.37-0.49 0.44-1.27 1.29-1.74 1.91-0.46 0.61-1.05 1.53-1.29 2.03-0.24 0.51-0.58 1.65-0.74 2.54-0.18 0.97-0.3 2.94-0.3 4.83l-0.01 3.21c-6.51-0.01-7.22 0.05-8.44 0.42-0.78 0.24-1.88 0.71-2.44 1.05-0.56 0.34-1.29 0.85-1.63 1.13-0.33 0.29-0.97 0.98-1.41 1.55-0.44 0.57-1.04 1.58-1.34 2.25-0.29 0.67-0.6 1.57-0.67 1.99-0.08 0.41-0.18 0.76-0.24 0.76-0.05 0-0.44-0.19-0.86-0.41-0.42-0.22-0.97-0.41-1.22-0.41-0.25 0-0.5-0.06-0.55-0.15-0.05-0.08-0.31-1.48-0.59-3.1-0.27-1.62-0.56-3.41-0.64-3.96-0.12-0.83-0.31-1.18-0.99-1.86-0.53-0.54-1.16-0.93-1.7-1.07-0.51-0.13-1.22-0.16-1.72-0.07q-0.85 0.15-1.74 0.96c-0.52 0.47-1.01 1.16-1.17 1.63-0.16 0.45-0.34 1.5-0.41 2.34-0.06 0.84-0.25 2.57-0.41 3.86-0.17 1.29-0.35 2.59-0.4 2.9-0.09 0.5-0.19 0.56-0.92 0.56-0.52 0-1.15 0.2-1.76 0.56-0.52 0.3-1.2 0.9-1.52 1.32-0.32 0.42-0.67 0.72-0.78 0.66-0.12-0.06 0.08-0.76 0.47-1.68 0.38-0.86 1.07-2.49 1.54-3.61 0.47-1.12 1.22-2.85 1.66-3.86 0.44-1.01 0.8-1.9 0.8-1.98 0-0.09-3.22-0.15-7.17-0.15-6.71 0-7.22 0.03-8.03 0.4-0.47 0.23-0.99 0.61-1.15 0.86-0.16 0.26-0.66 1.38-1.11 2.5-0.44 1.11-1.56 3.72-2.47 5.79-0.92 2.07-1.96 4.54-2.33 5.49-0.37 0.95-0.99 2.42-1.37 3.25l-0.71 1.53c-1.49-3.15-2.36-5.12-2.9-6.41-0.54-1.28-1.86-4.35-2.94-6.81-1.07-2.46-2.12-4.7-2.33-4.98-0.21-0.28-0.63-0.69-0.93-0.91-0.51-0.38-0.91-0.41-5.82-0.46l-5.27-0.05v-1.12l23.59 0.1v-14.44h-38.44v21.96c-1.75-1.11-2.14-1.22-3.1-1.22-1.16 0-1.17 0-1.29-0.66-0.06-0.36-0.3-1.44-0.53-2.39-0.22-0.95-0.61-2-0.86-2.33-0.24-0.34-0.85-0.82-1.35-1.07-0.49-0.25-1.2-0.46-1.56-0.46-0.36 0-1.14 0.18-1.73 0.39-0.8 0.3-1.2 0.61-1.62 1.22-0.39 0.57-0.76 1.68-1.19 3.52-0.35 1.49-0.74 3.2-0.88 3.82l-0.24 1.12-6.59 0.1v6.91h10.78c0.26 0.87 0.65 1.47 1.03 1.91 0.38 0.43 1.06 0.97 1.51 1.19 0.62 0.31 1.11 0.39 2.06 0.33 1-0.06 1.44-0.2 2.14-0.69q0.88-0.62 1.39-1.68c0.48-0.99 0.55-1.05 1.27-1.06h0.76v11.19l13.89-0.11c0.84-1.12 0.86-1.41 0.91-6.52l0.05-5.37 1.49 0.1c2.03 4.73 3.79 8.8 5.22 12.1 1.44 3.3 3.42 7.83 4.42 10.06 1 2.24 1.99 4.52 2.21 5.07 0.21 0.54 0.66 1.29 0.99 1.65 0.34 0.36 0.98 0.76 1.43 0.88 0.47 0.13 2.48 0.23 4.73 0.23 3.07 0 4.04-0.06 4.52-0.3 0.34-0.17 0.81-0.6 1.06-0.97 0.25-0.36 0.74-1.39 1.1-2.29 0.35-0.89 1.15-2.86 1.77-4.37 0.62-1.51 1.58-3.8 2.13-5.08 0.54-1.29 1.41-3.35 1.93-4.58 0.52-1.23 1.53-3.65 2.24-5.39l1.29-3.15c3.6 0.11 4.67 0.15 4.7 0.17 0.03 0.02 0.42 1.5 0.87 3.29 0.44 1.79 0.81 3.28 0.81 3.3 0 0.03 0.38 0.47 0.86 0.98 0.54 0.58 1.2 1.04 1.78 1.23 0.73 0.25 1.13 0.27 2.03 0.09 0.7-0.13 1.41-0.44 1.88-0.82 0.42-0.34 0.91-0.95 1.09-1.37 0.17-0.42 0.48-1.64 0.69-2.7 0.2-1.06 0.43-2.48 0.5-3.15l0.13-1.22c2.06-0.66 2.18-0.66 3.34-0.29 0.67 0.21 1.45 0.43 1.72 0.48 0.45 0.09 0.52 0.21 0.56 1.07 0.02 0.54 0.15 1.48 0.28 2.09 0.12 0.62 0.42 1.49 0.64 1.94 0.23 0.44 0.72 1.27 1.08 1.83 0.36 0.56 1.2 1.53 1.85 2.16 0.65 0.63 1.6 1.37 2.1 1.66 0.51 0.28 1.47 0.68 2.14 0.87 1 0.29 1.96 0.35 5.33 0.32l4.12-0.03c-0.14 0.71-0.33 1.6-0.52 2.44-0.27 1.17-0.33 2.09-0.24 3.96 0.08 1.88 0.22 2.75 0.59 3.77 0.26 0.72 0.8 1.81 1.19 2.42 0.39 0.6 1.28 1.63 1.98 2.28 0.7 0.66 1.62 1.36 2.04 1.57 0.41 0.21 1.28 0.53 1.93 0.72 0.97 0.27 2.34 0.33 8.33 0.33 6.77 0 7.25-0.02 8.6-0.43 0.78-0.24 1.97-0.78 2.64-1.21 0.67-0.42 1.72-1.3 2.34-1.97 0.61-0.66 1.36-1.7 1.66-2.31 0.31-0.6 0.7-1.65 0.89-2.32 0.21-0.78 0.38-2.5 0.47-4.81l0.13-3.59c6.63-0.16 7.53-0.26 8.44-0.59 0.61-0.22 1.53-0.63 2.03-0.92 0.5-0.29 1.42-1.06 2.03-1.72 0.62-0.66 1.41-1.74 1.77-2.41 0.36-0.66 0.8-1.76 0.99-2.43 0.18-0.67 0.39-2.23 0.47-3.46l0.13-2.23c1.58-0.09 1.66-0.04 2.24 0.86 0.33 0.52 0.93 1.13 1.32 1.36 0.39 0.22 1.17 0.51 1.73 0.64 0.85 0.21 1.18 0.19 2.03-0.09 0.56-0.19 1.29-0.53 1.63-0.77 0.33-0.23 0.79-0.81 1.01-1.27l0.41-0.85 10.07 0.01v-7.21c-4.34 0.25-6.05 0.27-6.61 0.2-0.95-0.11-1.05-0.18-1.43-0.96-0.26-0.53-0.77-1.08-1.42-1.51-0.86-0.58-1.2-0.68-2.19-0.68h-1.16c-0.5-2.45-0.77-3.63-0.93-4.22-0.19-0.68-0.5-1.24-0.85-1.53-0.31-0.26-0.97-0.63-1.48-0.83-0.78-0.32-1.08-0.34-2.08-0.15-0.84 0.16-1.38 0.41-1.91 0.88-0.4 0.36-0.85 0.89-0.99 1.17-0.14 0.28-0.38 1.04-0.54 1.68-0.15 0.65-0.32 1.17-0.38 1.17-0.05 0-0.26-0.3-0.46-0.66-0.19-0.37-0.83-1.16-1.42-1.76-0.58-0.6-1.52-1.4-2.08-1.77-0.56-0.37-1.61-0.87-2.34-1.12-0.92-0.32-1.81-0.46-2.95-0.47-0.89 0-2.77 0.01-4.17 0.04-1.39 0.03-2.56 0.03-2.59 0-0.02-0.03 0.04-0.7 0.15-1.48 0.11-0.78 0.2-2.93 0.21-4.78 0-2.51-0.08-3.64-0.33-4.47-0.18-0.62-0.61-1.66-0.97-2.32-0.35-0.66-1.14-1.71-1.75-2.34-0.66-0.68-1.71-1.46-2.54-1.9-0.79-0.4-1.98-0.88-2.65-1.06-0.99-0.26-2.42-0.31-7.62-0.3-4.79 0.02-6.7 0.09-7.58 0.31z"/>
			<path id="Path 2" fill-rule="evenodd" class="s34" d="m285.56 408.46c5.23-0.03 6.05 0.01 7.22 0.35 0.73 0.21 1.6 0.53 1.94 0.71 0.33 0.17 0.98 0.71 1.45 1.19 0.46 0.49 1.03 1.25 1.25 1.7 0.23 0.45 0.52 1.59 0.65 2.54 0.13 0.95 0.2 3.21 0.17 5.01-0.06 2.95-0.11 3.33-0.47 3.72-0.23 0.24-0.53 0.43-0.67 0.43-0.14-0.01-0.2-0.15-0.15-0.31 0.06-0.17 0.01-1.7-0.11-3.41-0.11-1.71-0.35-3.7-0.52-4.42-0.17-0.73-0.58-1.74-0.9-2.24-0.33-0.5-0.89-1.12-1.26-1.36-0.36-0.25-1.21-0.6-1.88-0.77-1-0.26-2.27-0.31-7.02-0.26-5.4 0.05-5.86 0.08-6.71 0.48-0.5 0.23-1.18 0.69-1.5 1.02-0.33 0.32-0.79 1-1.02 1.5-0.4 0.86-0.43 1.32-0.49 7.02-0.06 5.39-0.11 6.14-0.41 6.46-0.31 0.33-0.83 0.36-6.14 0.35-4.64-0.01-6 0.05-6.81 0.3-0.56 0.17-1.29 0.53-1.63 0.79-0.33 0.26-0.88 0.97-1.83 2.67v6.3c0 6.11 0.02 6.34 0.46 7.22 0.24 0.5 0.75 1.27 1.11 1.7 0.37 0.43 1.17 1.03 1.79 1.32 1.09 0.53 1.23 0.54 9.96 0.64l0.95-1.98c0.52-1.09 1.52-2.81 2.22-3.81 0.7-1.01 2.17-2.71 3.27-3.78 1.1-1.06 2.41-2.27 2.92-2.68 0.5-0.41 1.07-0.75 1.27-0.76 0.23 0-0.3 0.69-1.53 2-1.03 1.09-2.4 2.67-3.03 3.5-0.64 0.83-1.76 2.47-2.49 3.65-0.73 1.17-1.72 2.97-3.07 5.84l-3.76 0.11c-2.07 0.05-4.4 0.01-5.19-0.1-0.78-0.11-1.92-0.42-2.54-0.7-0.61-0.27-1.42-0.79-1.8-1.15-0.38-0.35-0.92-1.01-1.2-1.46-0.28-0.45-0.7-1.32-0.92-1.93-0.27-0.78-0.43-1.93-0.65-6.51h-4.17l-0.87-1.52c-0.47-0.83-0.91-1.52-0.96-1.52-0.06 0-0.33 0.37-0.61 0.82-0.28 0.45-0.72 1.04-0.97 1.32-0.25 0.27-0.55 0.49-0.66 0.49-0.11 0-0.43-0.2-0.7-0.45-0.39-0.36-0.57-0.85-0.81-2.19-0.16-0.95-0.45-2.41-0.63-3.25-0.18-0.84-0.37-1.57-0.42-1.63-0.05-0.06-0.09 0.27-0.09 0.71 0.01 0.45-0.08 1.32-0.18 1.93-0.11 0.62-0.24 1.67-0.3 2.34-0.05 0.67-0.24 2.37-0.4 3.76-0.17 1.4-0.46 3.69-0.64 5.09-0.3 2.24-0.4 2.58-0.83 2.9-0.42 0.3-0.57 0.31-1.04 0.1-0.51-0.23-0.59-0.43-0.92-2.29-0.2-1.12-0.64-3.29-0.97-4.83-0.34-1.54-0.61-2.84-0.61-2.9 0-0.05-0.22 0.15-0.98 1.02l-8.47 0.15-0.76 1.75c-0.41 0.97-2.14 4.96-3.84 8.88-1.7 3.91-3.79 8.72-4.64 10.67-0.85 1.96-1.64 3.71-1.75 3.89-0.18 0.3-0.57 0.32-6.81 0.08l-0.32-0.82c-0.17-0.44-0.9-2.14-1.61-3.76-0.72-1.62-3.01-6.79-5.1-11.49-2.08-4.69-4.27-9.64-5.94-13.42l-7.36-0.1v12h-7.32v-10.78l-5.8 0.02-1.22-1.69-0.46 1.09c-0.26 0.6-0.62 1.59-0.8 2.21-0.19 0.61-0.44 1.23-0.56 1.38-0.11 0.14-0.44 0.26-0.72 0.26-0.28 0-0.61-0.12-0.73-0.26-0.13-0.15-0.72-2.26-1.32-4.69-0.61-2.43-1.17-4.42-1.25-4.42-0.09 0-0.25 0.53-0.37 1.17-0.11 0.64-0.39 1.95-0.61 2.9-0.23 0.95-0.43 1.75-0.45 1.78-0.03 0.03-0.92 0.11-1.98 0.18-1.06 0.07-2.46 0.07-3.1 0-0.96-0.11-1.16-0.2-1.12-0.49 0.05-0.31 0.37-0.37 2.32-0.46 1.25-0.05 2.32-0.14 2.39-0.2 0.06-0.05 0.3-0.79 0.52-1.63 0.23-0.83 0.64-2.57 0.93-3.86 0.29-1.29 0.6-2.66 0.7-3.05 0.1-0.39 0.35-0.77 0.55-0.85 0.2-0.07 0.52-0.03 0.7 0.1 0.18 0.14 0.52 1.02 0.75 1.97 0.23 0.95 0.66 2.87 0.96 4.27 0.3 1.4 0.7 3.09 1.24 4.98l0.73-2.23c0.41-1.23 0.86-2.32 1.01-2.42 0.14-0.1 0.52-0.12 0.83-0.05 0.42 0.1 0.73 0.44 1.25 1.4 0.69 1.26 0.71 1.27 1.78 1.42 0.6 0.08 1.7 0.15 3.83 0.15v-22.77h30.7v6.71h-23.38v8.34h13.01l0.81 1.78c0.45 0.98 1.01 2.14 1.26 2.59 0.24 0.45 0.87 1.82 1.4 3.05 0.54 1.23 1.63 3.7 2.44 5.49 0.8 1.79 2 4.49 2.67 6 0.67 1.51 1.44 3.22 1.71 3.81 0.27 0.59 0.49 1.16 0.49 1.27 0 0.11 0.07 0.21 0.15 0.21 0.09 0 0.31-0.34 0.49-0.76 0.19-0.42 0.5-1.14 0.68-1.58 0.19-0.45 1.83-4.39 3.66-8.75 1.83-4.36 3.87-9.21 5.78-13.62l4.38-0.05c3.39-0.04 4.38 0 4.39 0.2 0 0.14-0.79 2.04-1.75 4.22-0.97 2.18-2.02 4.61-2.35 5.39-0.32 0.78-0.59 1.45-0.59 1.47 0 0.03 1.58 0.05 7.02 0.05l0.54-0.86c0.3-0.48 0.76-1.08 1.02-1.34 0.33-0.32 0.61-0.43 0.93-0.35 0.37 0.09 0.49 0.32 0.64 1.18 0.1 0.59 0.47 2.35 0.84 3.92 0.36 1.56 0.71 2.98 0.77 3.15 0.07 0.17 0.15-0.01 0.18-0.41 0.04-0.39 0.29-2.68 0.57-5.08 0.28-2.41 0.6-5.11 0.71-6 0.11-0.9 0.39-3.23 0.62-5.19 0.22-1.95 0.43-3.57 0.45-3.58 0.03-0.01 0.26-0.08 0.51-0.15 0.35-0.1 0.5-0.02 0.64 0.33 0.11 0.25 0.33 1.28 0.51 2.29 0.17 1 0.54 3.29 0.82 5.08 0.29 1.79 0.59 3.8 0.84 5.69l0.34-0.71c0.19-0.39 0.47-1.08 0.63-1.52 0.15-0.45 0.43-0.91 0.61-1.02q0.33-0.21 0.69 0.01c0.2 0.12 0.91 1.15 2.8 4.34l3.15 0.02 0.06-3.51c0.05-3.13 0.11-3.63 0.54-4.72q0.49-1.22 1.52-2.25c0.57-0.57 1.44-1.23 1.95-1.47 0.5-0.24 1.37-0.53 1.93-0.63 0.56-0.1 3.07-0.25 10.16-0.47l0.15-0.74c0.09-0.41 0.16-2.83 0.16-5.37 0-4.1 0.04-4.75 0.4-5.7 0.22-0.58 0.71-1.43 1.08-1.88 0.38-0.45 1.18-1.13 1.79-1.52 0.61-0.39 1.6-0.85 2.22-1.04 0.92-0.28 2.17-0.34 7.01-0.37zm0.52 5.93c5.13 0.05 5.87 0.09 6.36 0.41 0.3 0.19 0.7 0.7 0.89 1.12 0.27 0.59 0.36 1.57 0.53 8.28l-5.16 3.44c-2.84 1.9-6.26 4.32-7.6 5.39-1.34 1.07-3.05 2.52-3.81 3.22-0.76 0.7-1.87 1.84-2.46 2.54-0.59 0.7-1.63 2.01-2.32 2.9-0.68 0.89-1.57 2.24-2.7 4.37h-2.8c-2.28-0.01-2.95-0.08-3.61-0.38-0.45-0.21-1-0.58-1.22-0.83-0.38-0.43-0.41-0.79-0.47-5.77-0.04-3.35 0.02-5.6 0.15-6.08 0.12-0.42 0.49-0.99 1.44-1.78h6.15c5.45 0 6.23-0.04 6.85-0.36 0.38-0.19 0.98-0.71 1.94-1.92l0.12-6.33c0.07-4.26 0.19-6.52 0.35-6.9 0.14-0.3 0.54-0.74 0.91-0.97 0.63-0.39 0.93-0.41 6.46-0.35zm20.31 12.36c0.51 0 1.53 0.09 2.25 0.21 0.73 0.12 1.77 0.46 2.32 0.76 0.55 0.3 1.41 1.01 1.91 1.57 0.51 0.55 1.2 1.61 1.53 2.33 0.46 1 0.67 1.84 1.06 5.5h3.45l0.24-1.07c0.13-0.59 0.57-2.53 0.98-4.32 0.41-1.79 0.88-3.46 1.04-3.72 0.15-0.25 0.4-0.46 0.54-0.46 0.14-0.01 0.35 0.11 0.48 0.25 0.12 0.15 0.37 0.91 0.55 1.69 0.18 0.78 0.65 2.89 1.04 4.68 0.4 1.79 0.81 3.59 0.93 4.01 0.11 0.42 0.27 0.76 0.35 0.76 0.09 0 0.41-0.89 0.72-1.98 0.31-1.09 0.67-2.09 0.8-2.23 0.13-0.14 0.5-0.26 0.81-0.26 0.48 0 0.71 0.22 2.4 2.85h6.31v1.01l-7.41-0.1-0.62-0.85c-0.34-0.47-0.66-0.86-0.72-0.86-0.05-0.01-0.2 0.42-0.33 0.95-0.13 0.53-0.52 1.58-0.86 2.34-0.61 1.31-0.67 1.37-1.35 1.37-0.54 0-0.76-0.11-0.91-0.46-0.12-0.25-0.4-1.23-0.63-2.18-0.23-0.95-0.67-2.76-0.97-4.02-0.3-1.25-0.59-2.21-0.66-2.13-0.07 0.08-0.33 1.02-0.59 2.08q-0.38 1.61-1.02 3.86h-4.57l-0.16 1.88c-0.08 1.04-0.15 2.53-0.15 3.31 0 0.78-0.14 2-0.31 2.69-0.16 0.7-0.54 1.66-0.83 2.14-0.29 0.47-0.82 1.17-1.17 1.54-0.35 0.38-1.09 0.92-2.67 1.76l-10.68 0.11-0.02 0.66c-0.01 0.36-0.08 2.85-0.28 10.42l-0.61 1.22c-0.33 0.67-1.02 1.63-1.52 2.14-0.51 0.51-1.47 1.2-3.36 2.13h-14.85l-1.29-0.61c-0.81-0.38-1.64-0.98-2.19-1.58-0.49-0.53-1.13-1.49-1.43-2.13-0.29-0.65-0.6-1.68-0.69-2.29-0.08-0.62-0.06-1.94 0.04-2.95 0.11-1.01 0.42-2.52 0.71-3.35 0.28-0.84 1.16-2.81 1.95-4.38 0.79-1.56 1.78-3.44 2.2-4.16 0.43-0.73 1.29-2.01 1.92-2.85 0.63-0.84 2.01-2.49 3.06-3.66 1.06-1.18 2.72-2.87 3.7-3.77 0.98-0.9 2.56-2.29 3.51-3.08 0.95-0.8 3.21-2.58 8.29-6.47l3.33-0.06c1.83-0.04 3.36-0.11 3.41-0.16 0.05-0.05 0.51-0.09 1.02-0.08z"/>
			<path id="Path 4" class="s33" d="m298.29 428.31c-0.16 0.07-1.2 0.83-2.32 1.67-1.12 0.85-2.54 1.93-3.17 2.41-0.62 0.48-2 1.66-3.07 2.64-1.06 0.97-3.16 3.1-4.67 4.72-1.51 1.63-3.22 3.6-3.8 4.38-0.57 0.78-1.63 2.38-2.34 3.56-0.72 1.17-1.56 2.73-1.88 3.46-0.32 0.72-0.81 1.96-1.07 2.74-0.27 0.78-0.58 1.84-0.7 2.34-0.12 0.5-0.21 1.9-0.2 3.1 0.02 1.98 0.08 2.3 0.61 3.36 0.32 0.64 0.93 1.48 1.37 1.86 0.43 0.38 1.15 0.86 1.6 1.06 0.73 0.33 1.48 0.37 7.07 0.37 5.95 0.01 6.31-0.01 7.42-0.44 0.64-0.24 1.53-0.77 1.96-1.17 0.44-0.39 0.99-1.13 1.22-1.63 0.4-0.86 0.43-1.32 0.48-7.17l0.05-6.25c8.29 0 11.22-0.1 11.9-0.22 0.67-0.12 1.58-0.43 2.03-0.69 0.45-0.25 1.03-0.82 1.29-1.25 0.26-0.44 0.62-1.34 0.79-2.01 0.24-0.99 0.29-2.26 0.22-6.61-0.08-5.08-0.11-5.44-0.53-6.25-0.25-0.48-0.75-1.2-1.11-1.61-0.36-0.41-1.03-0.97-1.47-1.26-0.45-0.28-1.27-0.64-1.83-0.8-0.7-0.2-2.36-0.32-5.29-0.37-2.35-0.04-4.4-0.01-4.56 0.06z"/>
			<path id="Path 5" class="s34" d="m299.8 431.39c-0.81 0.12-1.3 0.37-2.43 1.26-0.77 0.61-2.46 2.03-3.76 3.16-1.29 1.13-3.58 3.33-5.07 4.88-1.5 1.56-3.25 3.47-3.89 4.25-0.64 0.79-1.69 2.2-2.33 3.16-0.65 0.95-1.63 2.68-2.18 3.86-0.55 1.17-1.28 3.05-1.62 4.17-0.55 1.83-0.6 2.19-0.47 3.66 0.08 0.89 0.27 1.88 0.42 2.18 0.16 0.31 0.49 0.66 0.74 0.79 0.32 0.15 2.39 0.2 6.66 0.15 5.8-0.07 6.24-0.1 6.79-0.48 0.32-0.22 0.73-0.68 0.91-1.02 0.27-0.49 0.32-1.18 0.29-3.76-0.02-1.73 0-5 0.05-7.27l0.09-4.12c11.81-0.01 14.14-0.09 14.63-0.26 0.38-0.13 0.88-0.5 1.11-0.82 0.41-0.54 0.43-0.82 0.43-5.39 0-2.64-0.07-5.15-0.15-5.57-0.09-0.42-0.45-1.1-0.82-1.51-0.36-0.41-0.98-0.88-1.37-1.05-0.5-0.21-1.63-0.32-3.86-0.36-1.74-0.03-3.61 0.01-4.17 0.09z"/>
		</g>
		<g>
			<path class="s35" d="m127.07 320.26h-65.57v-39.35c0-6.72 5.45-12.17 12.17-12.17h41.23c6.72 0 12.17 5.45 12.17 12.17 0 0 0 39.35 0 39.35z"/>
			<g>
				<path class="s35" d="m127.66 260.93h-35.52c-2.26 0-4.1-1.84-4.1-4.1v-2.73c0-2.27 1.84-4.1 4.1-4.1h35.52c2.26 0 4.1 1.83 4.1 4.1v2.73c0 2.26-1.84 4.1-4.1 4.1z"/>
				<path class="s36" d="m124.73 257.81h-28.1c-1.29 0-2.34-1.06-2.34-2.34 0-1.29 1.05-2.35 2.34-2.35h28.1c1.29 0 2.34 1.06 2.34 2.35 0 1.28-1.05 2.34-2.34 2.34z"/>
			</g>
			<path fill-rule="evenodd" class="s37" d="m94.29 290.59h23.42v23.42h-23.42z"/>
			<path fill-rule="evenodd" class="s35" d="m106.78 259.37h3.12v15.61h-3.12z"/>
		</g>
		<g>
			<path class="s38" d="m411.33 306.42c-0.34-0.34-6.14-20.46-22.5-21.48 0 0 13.29 14.66 13.29 21.14z"/>
			<path class="s39" d="m406.38 310.68c0 0-4.09-24.89 30-40.91 0 0-10.24 21.64-13.97 25.91-4.78 5.45-5.8 13.63-5.8 13.63z"/>
			<path class="s39" d="m413.54 303.18h-10.23c0 0-6.13-14.66-6.81-35.8 0 0.01 13.63 18.07 17.04 35.8z"/>
			<path class="s40" d="m414.91 300.79h-9.21c0 0 1.36-15.68 7.84-24.88z"/>
			<path class="s38" d="m415.93 305.91l-11.59-0.69c0 0-4.77-29.31 8.52-47.72 0 0 7.5 21.82 3.07 48.41z"/>
			<path class="s3" d="m423.77 300.79h-27.27c0 0-1.03 18.07 9.88 19.77h8.53c0 0 8.86-1.36 8.86-19.77z"/>
		</g>
	</g>
	<g id="DESIGNED_BY_FREEPIK">
		<g>
			<g id="XMLID_24_">
				<g id="XMLID_210_">
				</g>
			</g>
			<g>
			</g>
		</g>
	</g>
</svg>